<?xml version="1.0" encoding="utf-8"?>
<!-- Generator: Adobe Illustrator 19.1.0, SVG Export Plug-In . SVG Version: 6.00 Build 0)  -->
<svg version="1.1" id="Layer_3" xmlns="http://www.w3.org/2000/svg" xmlns:xlink="http://www.w3.org/1999/xlink" x="0px" y="0px"
	 viewBox="0 0 365.2 137.4" style="enable-background:new 0 0 365.2 137.4;" xml:space="preserve">
<style type="text/css">
	.Drop_x0020_Shadow{fill:none;}
	.Round_x0020_Corners_x0020_2_x0020_pt{fill:#FFFFFF;stroke:#231F20;stroke-miterlimit:10;}
	.Live_x0020_Reflect_x0020_X{fill:none;}
	.Bevel_x0020_Soft{fill:url(#SVGID_1_);}
	.Dusk{fill:#FFFFFF;}
	.Foliage_GS{fill:#FFDD00;}
	.Pompadour_GS{fill-rule:evenodd;clip-rule:evenodd;fill:#44ADE2;}
	.st0{fill:none;stroke:#EFA28E;stroke-miterlimit:10;}
	.st1{fill:none;stroke:#DD7B68;stroke-miterlimit:10;}
	.st2{fill:none;stroke:#231F20;stroke-miterlimit:10;}
</style>
<linearGradient id="SVGID_1_" gradientUnits="userSpaceOnUse" x1="-34.5607" y1="-154.4129" x2="-33.8536" y2="-153.7058">
	<stop  offset="0" style="stop-color:#DEDFE3"/>
	<stop  offset="0.1783" style="stop-color:#DADBDF"/>
	<stop  offset="0.3611" style="stop-color:#CECFD3"/>
	<stop  offset="0.546" style="stop-color:#B9BCBF"/>
	<stop  offset="0.7324" style="stop-color:#9CA0A2"/>
	<stop  offset="0.9181" style="stop-color:#787D7E"/>
	<stop  offset="1" style="stop-color:#656B6C"/>
</linearGradient>
<path class="st0" d="M0.1,47.3c44.7,8.9,112.3,14.3,158.1,13c2.9-0.1,6-1,7.8-3.3c1.6-1.9,3.6-5,3.9-7.5
	c1.6-11.6,7.1-20.7,15.4-27.4c4.6-3.8,11.6-6.9,16.9-9.9c14.9-8.5,17.2-7.9,22.8-6.2c7,2.1,13,2,13,2"/>
<path class="st1" d="M238.4,15.7c-1.1-2.1-1.1-3.8-0.8-6.2c0.2-1.7,1.7-2,3.2-2.2c0.9-0.1,2-0.2,3.2-0.2c2.5-0.1,4.6-0.2,7.2,0.1
	c2,0.3,4.3,1.2,3,3.3c-3.3,5.2-9.5,6-15.6,5.4"/>
<path class="st0" d="M254.3,10.1c0.6,2.4,0,4.1-1.5,5.9c-1.1,1.4-4.1,4.9-17.6,7.1"/>
<path class="st0" d="M204.6,19c2.4,1.3,6.5,2.2,14.2,4.2"/>
<path class="st0" d="M198.8,23.1c10.1,0.7,21.3,0.1,31.5,0c20.1-0.2,17.5-0.5,28.5,8c3.2,2.5,6.5,5.9,8.5,8.5c2,2.6,0,9.9-3.5,13.1"
	/>
<path class="st0" d="M248.7,38.1c0.6,3,3.9,6.7,6.5,8.2c6.4,4,9.3,6,10.7,8.8c1.4,2.8,0,13.1-1.6,14.1s-11.5,1.1-11.5,1.1"/>
<path class="st0" d="M262.9,69.7c1.1,3.7,2.9,8.8,0.9,14.1c-2.1,2.9-5.9,6.1-7.9,6.6"/>
<path class="st0" d="M0.1,127.3c39.7,0.7,95.7-2.3,135.3-8c18.1-2.6,34.8-6.2,53-7.2c10.3-0.6,23.7,2.9,34,1.8
	c9.7-1.1,17.1-2.6,25.8-7.2c2.8-1.5,10.5-4.3,10.2-7.5c-0.2-3.8-1-5.8-1.2-9.1"/>
<path class="st2" d="M242.2,109.8c6.2,5.8,12.5,9,25.2,10.2c0,0-0.2,2.2,0,7.2c4.8,5.3,31,9.7,49.7,9.7c20.8,0,35.5-2.9,45.7-7.7
	c0.8-0.4,3.3-121.4,1-122.3c-17.5-6.8-31.8-6.6-50.3-6.3c-6.6,0.1-28.8,0.4-46,9c-0.7,0.3,0.2,13.5,0,13.8c-3.8-1.2-13.7-7.8-24-0.2
	"/>
<path class="st2" d="M268.2,44.1c0,0-1.1,56.2-1.4,56.8c-1.7,4-9,5.3-14.1,3.9"/>
<path class="st2" d="M271.4,12.9c7.9,4.3,19.1,6.6,28,7.9c8.5,1.2,15.8,1.3,24.2,0.8c11.2-0.8,26-4.1,36.4-10.7"/>
<path class="st2" d="M275.1,40.8c22.2,5.9,47.3,6.7,69.7,1.5c0.6-0.1,0.6,70.1,0,71c-24.3,6.3-48,5.7-69.7-1.3
	c-1-1.7,0.7-47.3,0.3-70.6"/>
<path class="st2" d="M292.3,55.1c-0.8-1.6-2.9-2.4-4.7-2.1c-1.8,0.3-3.3,1.6-4.3,3.2c-1.8,2.9-1.7,7,0.6,9.6c2.3,2.5,6.7,3,9.2,0.8"
	/>
<path class="st2" d="M304.1,55.2c-1.1-0.6-2.4-1.1-3.6-1s-2.5,1.1-2.5,2.4c0,1.1,0.8,1.9,1.6,2.6c2.2,1.9,4.8,3.8,5.6,6.7
	c0.2,0.6,0.3,1.3-0.1,1.8c-0.3,0.4-0.7,0.6-1.2,0.7c-2.1,0.7-4.5,0.3-6.2-1"/>
<path class="st2" d="M316.6,55.3c-1.9-1.7-4.9-1.8-6.9-0.2c-0.3,0.3-0.7,0.6-0.8,1c-0.3,1,0.8,1.9,1.6,2.5c2,1.4,3.8,3.1,5.3,5.1
	c0.5,0.6,0.9,1.3,1,2c0.1,1.4-1.4,2.6-2.8,2.7c-1.4,0.1-2.8-0.5-4.1-1.1"/>
<path class="st2" d="M280.9,74.4c2.8,0.7,5.8,0.8,8.7,0.2"/>
<path class="st2" d="M286.5,75.5c0.4,3.5,0.9,8.3,1.3,11.8"/>
<path class="st2" d="M283.8,86.8c2.7,0.6,5.5,0.8,8.3,0.8"/>
<path class="st2" d="M300.9,74.7c-1.3-0.7-2.7-1.3-4.2-1.1s-2.7,1.9-2.1,3.2c0.3,0.6,0.8,0.9,1.3,1.3c1.9,1.4,3.7,2.9,5.4,4.6
	c0.5,0.5,1.1,1.1,1.3,1.9c0.3,1.4-1,2.8-2.4,3.2c-1.4,0.3-2.9-0.1-4.4-0.5"/>
<path class="st2" d="M283.9,93.9c-1.2,4.1-4.1,17-3.6,14.9"/>
<path class="st2" d="M283.7,93.5c2.3,5.4,4.3,10.8,5.9,16.4"/>
<path class="st2" d="M281.2,104.5c2.2-0.4,4-0.3,6.2,0"/>
<path class="st2" d="M290.6,96.3c0.6,4,1.8,8,3.6,11.7c0.5-2.5,1.2-4.9,1.9-7.4c1.8,3.1,3.5,6.2,5.3,9.4c0.4-4.1,0.5-8.2,0.3-12.3"
	/>
<path class="st2" d="M306.5,97.8c2.6,0,5.2,0,7.7,0"/>
<path class="st2" d="M307.1,98c-0.4,2.6-1.1,6.3-0.1,8.8c1,2.5,4.2,4.2,6.5,2.9"/>
<path class="st2" d="M306,105.4c1.9-0.4,3.9-0.5,5.8-0.3"/>
<path class="st2" d="M321.6,97.3c-0.5-0.8-1.6-1.2-2.5-0.9c-0.9,0.3-1.5,1.3-1.4,2.3c0.2,2,2.8,2.6,4.5,3.5c1.4,0.7,2.6,2,3,3.5
	c0.4,1.5-0.2,3.3-1.5,4.1c-1.3,0.8-3.4,0.4-4-1.1"/>
<path class="st2" d="M329.7,97.4c-0.4-0.4-1,0.4-1.1,1c-0.3,2-0.6,4.1,0.2,6c0.7,1.9,2.7,3.4,4.7,2.9c2.2-0.6,2.9-3.6,1.9-5.6
	c-1-2-3.5-4-5.6-4.7"/>
<path class="st2" d="M337.8,97.8c1,3.8,2,7.5,2.9,11.3c-0.1-0.4-0.2-0.8-0.3-1.2"/>
<path class="st2" d="M338.1,97.7c0.7,0.9,1.4,1.9,2.4,2.4c1,0.5,2.4,0.6,3.2-0.3c1-1.1,1-3.3,2.5-3.5c1.8,4.1,3.1,8.3,4.1,12.6"/>
<path class="st2" d="M351.1,96.6c2.6-0.4,5.1-0.9,7.7-1.3"/>
<path class="st2" d="M352.2,96.6c0,2.5,0.8,6.3,1.5,8.7c0.3,0.9,0.6,1.9,1.5,2.4c0.7,0.4,1.6,0.3,2.3,0.2c1.9-0.2,3.8-0.7,5.6-1.3"
	/>
<path class="st2" d="M353.5,102.9c2.4-0.2,4.9-0.5,7.3-0.7"/>
</svg>
