<?xml version="1.0" encoding="utf-8"?>
<!-- Generator: Adobe Illustrator 19.1.0, SVG Export Plug-In . SVG Version: 6.00 Build 0)  -->
<svg version="1.1" id="Layer_1" xmlns="http://www.w3.org/2000/svg" xmlns:xlink="http://www.w3.org/1999/xlink" x="0px" y="0px"
	 viewBox="0 0 199.3 202.5" style="enable-background:new 0 0 199.3 202.5;" xml:space="preserve">
<style type="text/css">
	path{stroke-width:5;}
	.Drop_x0020_Shadow{fill:none;}
	.Round_x0020_Corners_x0020_2_x0020_pt{fill:#FFFFFF;stroke:#231F20;stroke-miterlimit:10;}
	.Live_x0020_Reflect_x0020_X{fill:none;}
	.Bevel_x0020_Soft{fill:url(#SVGID_1_);}
	.Dusk{fill:#FFFFFF;}
	.Foliage_GS{fill:#FFDD00;}
	.Pompadour_GS{fill-rule:evenodd;clip-rule:evenodd;fill:#44ADE2;}
	.st0{fill:none;stroke:#3B5998;stroke-miterlimit:10;}
	.st1{fill:none;stroke:#E4178A;stroke-miterlimit:10;}
	.st2{fill:none;stroke:#FFC54D;stroke-miterlimit:10;}
	.st3{fill:none;stroke:#FD6E21;stroke-miterlimit:10;}
	.st4{fill:none;stroke:#5D267D;stroke-miterlimit:10;}
	.st5{fill:none;stroke:#0077B5;stroke-miterlimit:10;}
</style>
<linearGradient id="SVGID_1_" gradientUnits="userSpaceOnUse" x1="-5.8402" y1="3.7476" x2="-5.1331" y2="4.4547">
	<stop  offset="0" style="stop-color:#DEDFE3"/>
	<stop  offset="0.1783" style="stop-color:#DADBDF"/>
	<stop  offset="0.3611" style="stop-color:#CECFD3"/>
	<stop  offset="0.546" style="stop-color:#B9BCBF"/>
	<stop  offset="0.7324" style="stop-color:#9CA0A2"/>
	<stop  offset="0.9181" style="stop-color:#787D7E"/>
	<stop  offset="1" style="stop-color:#656B6C"/>
</linearGradient>
<path class="st0" d="M45.3,89.8c10.6-2,21.4-2.4,32.1-1.1C76,82,74.9,75.2,74.1,68.4c-0.6-5.3-1-11,1.3-15.9
	c2.7-5.8,8.7-9.3,14.6-11.9c8.4-3.6,17.7-6,26.6-4.2s17.2,8.9,18.2,18c0.2,1.9,0.1,3.8-0.7,5.5c-0.6,1.4-1.6,2.5-2.6,3.7
	c-1.5,1.7-2.9,3.4-4.4,5c-0.3,0.4-0.7,0.8-1.2,0.8c-0.7,0-1.1-0.6-1.5-1.1c-4.4-6.1-12-11.4-19-8.6c-4.6,1.9-7.3,6.8-7.8,11.7
	c-0.6,4.9,0.6,9.8,1.8,14.6c12.5-2.5,25.3-3.4,37.9-2.5c0.6,7.6,1.9,15.2,4.1,22.5c-11,4.4-23,6.5-34.9,6.1
	c-0.3,19.4,2,38.9,6.6,57.8c-5.7,4.6-12.3,7.9-19.4,9.6c-8.6-20.8-13.6-43.1-14.9-65.6c-9,2-18.1,3.3-27.3,3.9
	c-1.4,0.1-2.9,0.1-3.9-0.8c-0.8-0.7-1.1-1.7-1.4-2.6c-2.3-7.6-4.1-15.4-5.5-23.2"/>
<path class="st0" d="M106.2,3.7C76.9-2,45.9,12,27.1,35.2S1.1,89.4,2.7,119.1c1.2,21.1,7.1,42.9,22,57.8
	c18.2,18.2,45.9,22.9,71.6,22.8c15.5-0.1,31.4-1.7,45.3-8.5c16-7.9,28-22.2,37.4-37.4c9.1-14.6,16.3-30.8,17.7-47.9
	c1.5-19.2-4.4-38.3-11.9-56.1c-3.7-8.7-8-17.5-15-23.8c-7.8-6.9-14-12.6-24-15.6c-10.5-3.1-26-6-37.5-4.6"/>
</svg>
