<?xml version="1.0" encoding="utf-8"?>
<!-- Generator: Adobe Illustrator 19.1.0, SVG Export Plug-In . SVG Version: 6.00 Build 0)  -->
<svg version="1.1" id="Layer_1" xmlns="http://www.w3.org/2000/svg" xmlns:xlink="http://www.w3.org/1999/xlink" x="0px" y="0px"
	 viewBox="0 0 173.2 204.4" style="enable-background:new 0 0 173.2 204.4;" xml:space="preserve">
<style type="text/css">
	path{stroke-width:5;}
	.Drop_x0020_Shadow{fill:none;}
	.Round_x0020_Corners_x0020_2_x0020_pt{fill:#FFFFFF;stroke:#231F20;stroke-miterlimit:10;}
	.Live_x0020_Reflect_x0020_X{fill:none;}
	.Bevel_x0020_Soft{fill:url(#SVGID_1_);}
	.Dusk{fill:#FFFFFF;}
	.Foliage_GS{fill:#FFDD00;}
	.Pompadour_GS{fill-rule:evenodd;clip-rule:evenodd;fill:#44ADE2;}
	.st0{fill:none;stroke:#3B5998;stroke-miterlimit:10;}
	.st1{fill:none;stroke:#E4178A;stroke-miterlimit:10;}
	.st2{fill:none;stroke:#FFC54D;stroke-miterlimit:10;}
	.st3{fill:none;stroke:#FD6E21;stroke-miterlimit:10;}
	.st4{fill:none;stroke:#5D267D;stroke-miterlimit:10;}
	.st5{fill:none;stroke:#0077B5;stroke-miterlimit:10;}
</style>
<linearGradient id="SVGID_1_" gradientUnits="userSpaceOnUse" x1="-461.946" y1="0.8115" x2="-461.2389" y2="1.5187">
	<stop  offset="0" style="stop-color:#DEDFE3"/>
	<stop  offset="0.1783" style="stop-color:#DADBDF"/>
	<stop  offset="0.3611" style="stop-color:#CECFD3"/>
	<stop  offset="0.546" style="stop-color:#B9BCBF"/>
	<stop  offset="0.7324" style="stop-color:#9CA0A2"/>
	<stop  offset="0.9181" style="stop-color:#787D7E"/>
	<stop  offset="1" style="stop-color:#656B6C"/>
</linearGradient>
<path class="st4" d="M32.6,37.8c-3.4-8.6-4.7-18-6.4-29.9c7.8,3,16.7,7.7,24,12c23.5-20.5,61.6-23.5,86.4-5.6
	c0.8,0.6,22.2-7.7,34.2-10.3c-0.9,8.1-2.6,12.4-5.1,21.8c-0.5,1.9-1.8,4.4-1.7,6.4c0.1,2.8,3.9,13,4.3,15.8
	c2.6,17.1-1.7,26.1-11.1,35.5c-3.9,3.9-10.4,8.2-15.3,10.5c-5.7,2.6-11.4,5.2-17.1,7.8c8.8,2.1,13.3,12.3,13.3,21.3
	c0,9-3.1,17.8-3.7,26.8c-0.6,9.3,1.6,18.7,6.2,26.8c3.5,6.1,8.3,11.3,12.2,17.1c0.6,0.9,1.2,1.8,1.1,2.9c-0.2,2.5-3.6,3.2-6.1,2.8
	c-9.4-1.5-17.6-8-22.9-15.9s-8.3-17.2-10.4-26.5c-4.8,14.3-5.8,29.9-2.9,44.8c-9.1-1.2-15.5-10-18.1-18.8c-2.7-8.8-2.8-18.3-5.7-27
	c-0.4,6.3-0.9,12.5-1.3,18.8c-0.4,5.3-0.8,10.7-2.7,15.7c-1.9,5-5.7,9.5-10.8,11.1c-2.8-3.4-1.6-8.3-0.7-12.6
	c2.4-11,1.6-22.6-2.2-33.2c-2.1,8.7-4.2,17.4-8.5,25.2s-11.1,14.6-19.8,16.9c-2.3,0.6-5.8-0.1-5.6-2.4c0.1-0.9,0.8-1.7,1.5-2.3
	C50.1,180.3,56.8,162,55.7,144c-12.5,3.5-26.6,0.8-36.9-7.1C8.6,129,2.3,116.1,2.5,103.1c6.3,2.7,10.5,8.6,15.6,13.2
	c8.1,7.4,23.2,13.2,34.2,13.5c-0.9-6.9,2-17.6,7.3-22.2c5.2-4.6,8.2-4.9,14.9-7.1c-8.5-0.1-17.3-2.2-24.2-7.2
	c-7.6-5.6-14.4-15.1-16.8-24.2s-2.1-17.1-0.8-27.2"/>
</svg>
