<?xml version="1.0" encoding="utf-8"?>
<!-- Generator: Adobe Illustrator 19.1.0, SVG Export Plug-In . SVG Version: 6.00 Build 0)  -->
<svg version="1.1" id="Layer_1" xmlns="http://www.w3.org/2000/svg" xmlns:xlink="http://www.w3.org/1999/xlink" x="0px" y="0px"
	 viewBox="0 0 206.8 209.3" style="enable-background:new 0 0 206.8 209.3;" xml:space="preserve">
<style type="text/css">
	path{stroke-width:5;}
	.Drop_x0020_Shadow{fill:none;}
	.Round_x0020_Corners_x0020_2_x0020_pt{fill:#FFFFFF;stroke:#231F20;stroke-miterlimit:10;}
	.Live_x0020_Reflect_x0020_X{fill:none;}
	.Bevel_x0020_Soft{fill:url(#SVGID_1_);}
	.Dusk{fill:#FFFFFF;}
	.Foliage_GS{fill:#FFDD00;}
	.Pompadour_GS{fill-rule:evenodd;clip-rule:evenodd;fill:#44ADE2;}
	.st0{fill:none;stroke:#3B5998;stroke-miterlimit:10;}
	.st1{fill:none;stroke:#E4178A;stroke-miterlimit:10;}
	.st2{fill:none;stroke:#FFC54D;stroke-miterlimit:10;}
	.st3{fill:none;stroke:#FD6E21;stroke-miterlimit:10;}
	.st4{fill:none;stroke:#5D267D;stroke-miterlimit:10;}
	.st5{fill:none;stroke:#0077B5;stroke-miterlimit:10;}
</style>
<linearGradient id="SVGID_1_" gradientUnits="userSpaceOnUse" x1="-224.4301" y1="6.3631" x2="-223.723" y2="7.0702">
	<stop  offset="0" style="stop-color:#DEDFE3"/>
	<stop  offset="0.1783" style="stop-color:#DADBDF"/>
	<stop  offset="0.3611" style="stop-color:#CECFD3"/>
	<stop  offset="0.546" style="stop-color:#B9BCBF"/>
	<stop  offset="0.7324" style="stop-color:#9CA0A2"/>
	<stop  offset="0.9181" style="stop-color:#787D7E"/>
	<stop  offset="1" style="stop-color:#656B6C"/>
</linearGradient>
<path class="st1" d="M17.8,26C26,16.6,37.2,10.4,49.1,6.8c22.5-6.7,46.6-4,70-2.7C134.4,5,150,5.4,164.6,10s28.5,14.2,34.1,28.5
	c3.1,7.9,3.4,16.6,3.7,25.1c0.4,12.5,0.8,25.1,1.2,37.6c0.6,19.5,1.3,39.1-1.2,58.5c-1.6,12.4-4.8,25.5-13.9,34.2
	c-11.1,10.7-27.9,12.1-43.3,12.5c-27.5,0.7-55.1,0.1-82.6-1.5c-12.3-0.7-25.3-1.8-35.5-8.9c-15.8-11-19.4-32.4-21.4-51.6
	c-3.3-31.6-5.5-63.8,0.5-95c1.8-9.4,4.9-19.6,12.9-25"/>
<path class="st2" d="M112.4,58.2c-2.8-3-7.4-3.3-11.4-3.1C85.6,56,69.8,61.9,60.7,74.3c-12.6,17.2-7.8,43.9,8.8,57.2
	s42,13.2,59.7,1.3c6.4-4.3,12.1-10.1,14.8-17.4c3-8.1,2.1-17.2-0.5-25.5c-4.8-15.4-16.1-29.4-31.6-33.8"/>
<path class="st3" d="M153.3,41.3c-0.7-2.2,1.3-4.6,3.6-5c2.3-0.5,4.6,0.4,6.7,1.4c2.4,1.1,5,2.4,6.2,4.8c1.8,3.4,0.2,8-3.2,9.9
	c-3.4,1.8-7.9,0.9-10.6-1.8c-2.7-2.7-3.7-6.9-3-10.6"/>
</svg>
