<?xml version="1.0" encoding="utf-8"?>
<!-- Generator: Adobe Illustrator 19.1.0, SVG Export Plug-In . SVG Version: 6.00 Build 0)  -->
<svg version="1.1" id="Layer_3" xmlns="http://www.w3.org/2000/svg" xmlns:xlink="http://www.w3.org/1999/xlink" x="0px" y="0px"
	 viewBox="0 0 207.4 493.7" style="enable-background:new 0 0 207.4 493.7;" xml:space="preserve">
<style type="text/css">
	.Drop_x0020_Shadow{fill:none;}
	.Round_x0020_Corners_x0020_2_x0020_pt{fill:#FFFFFF;stroke:#231F20;stroke-miterlimit:10;}
	.Live_x0020_Reflect_x0020_X{fill:none;}
	.Bevel_x0020_Soft{fill:url(#SVGID_1_);}
	.Dusk{fill:#FFFFFF;}
	.Foliage_GS{fill:#FFDD00;}
	.Pompadour_GS{fill-rule:evenodd;clip-rule:evenodd;fill:#44ADE2;}
	.st0{fill:none;stroke:#542909;stroke-miterlimit:10;}
	.st1{fill:none;stroke:#E57676;stroke-miterlimit:10;}
	.st2{fill:none;stroke:#000000;stroke-miterlimit:10;}
</style>
<linearGradient id="SVGID_1_" gradientUnits="userSpaceOnUse" x1="0.5144" y1="-7.2492" x2="1.2215" y2="-6.5421">
	<stop  offset="0" style="stop-color:#DEDFE3"/>
	<stop  offset="0.1783" style="stop-color:#DADBDF"/>
	<stop  offset="0.3611" style="stop-color:#CECFD3"/>
	<stop  offset="0.546" style="stop-color:#B9BCBF"/>
	<stop  offset="0.7324" style="stop-color:#9CA0A2"/>
	<stop  offset="0.9181" style="stop-color:#787D7E"/>
	<stop  offset="1" style="stop-color:#656B6C"/>
</linearGradient>
<g id="hair-top">
	<path class="st0" d="M187.5,196.3c9,21.5,9.2,26.2,8.1,45.1c-0.4,6.4-1.1,11.8-2.1,18.1c-1,6.8-4.5,15.5-6.7,21.7
		c-4.2,11.8-9.1,27-7.4,39.6"/>
	<path class="st0" d="M171.5,169.3c20.9,29.1,25.9,74.7,13.2,108.2c-3.4,9-6.4,20.2-7.7,29.8"/>
	<path class="st0" d="M160.7,153.1c12.6,26,18.3,55.3,16.4,84.2c-1,15.2-4,30.3-3.8,45.6c0.2,15.3,8,40.6,7.6,54.8"/>
	<path class="st0" d="M144.5,129.3c16.9,23.7,19.8,59.2,20.2,88.4c0.4,29.2-1.3,59,7.6,86.8c4.1,12.6,8.4,26.9,6,39.9"/>
	<path class="st0" d="M133.5,112.3c27.7,56.3,0,115.5,26,172.5"/>
	<path class="st0" d="M126.5,99.3c9.5,26.8,8.1,61,8,89.5c0,28.5,0.5,52.8,15.5,77"/>
	<path class="st0" d="M111.5,67.8c15.4,31.6,18,69.5,16.9,104.6c-0.8,25.5-4.4,52.2,8.1,74.4"/>
	<path class="st0" d="M67.3,23.7c22.5,17.1,36,44,42.1,71.6s5.4,56.2,4.3,84.4c-0.4,9.5-0.8,19.1,1.4,28.3c4.2,18,17.4,32.3,28,47.5
		c21.5,30.7,34.8,71.3,23.9,107.2"/>
	<path class="st0" d="M136,261.8c18.5,44.9,13.5,105.9-20,141"/>
	<path class="st0" d="M150,295.3c9.6,33-1.3,66.9-19.8,95.9c-6.7,10.6-14.9,21.1-15.9,33.6"/>
	<path class="st0" d="M48,15.1C70.4,26.8,87.3,47.6,96.8,71s11.8,49.4,8.8,74.6c-1.6,13.5-4.6,27-3.6,40.6
		c2.2,26.8,19.9,49.3,32.6,73c18.3,34,27.2,73,25.3,111.6"/>
	<path class="st0" d="M100.5,206.3c5.6,19.8,10.8,41.6,16.4,61.4c3.7,13.2,7.5,26.5,9.8,40.1c1.4,8.3,2.3,17,0,25.1
		s-9.5,16.5-17.7,18.4"/>
	<path class="st0" d="M112,232.5c7.1,22.5,13.9,44.9,17.8,68.3c2,12.3,3.5,25,0.4,37c-3.3,12.9-12,24.3-23.5,31"/>
	<path class="st0" d="M11.5,10.8C23.9,12.2,47,22.5,56.2,30.9c13,11.7,25.6,25,30.7,41.8c2.9,9.8,3.1,20.1,3,30.3
		c-0.4,25.4-2.8,51,2.3,75.9c4.7,22.9,15.5,44.1,25.5,65.2c10,21.2,19.5,43.2,21.3,66.5c1.3,17.1-2.1,35.3-11.6,49.8
		c-10.5,16-24.8,22.4-26.1,43.4"/>
	<path class="st0" d="M0.5,14.8c25.8,0.7,57.3,15.6,69.2,38.5c14.4,27.9,5.7,61.7,8.6,93c1.2,12.9,4.4,25.4,7.5,37.9
		c4.8,18.8,9.6,37.6,17.6,55.2c2.5,5.4,5.2,10.7,7.2,16.4c2.5,7,3.7,14.5,4.7,21.9c2.8,21.7,3.4,44.4-5.4,64.5"/>
	<path class="st0" d="M14.5,10.3c4-2,4.4-3.5,9-5s7.8-2.1,12.7-2.5"/>
	<path class="st0" d="M5.2,12.7c5.1-7.1,10.7-9,18.9-12"/>
	<path class="st0" d="M31,58.8c18.2,6.9,30,18.2,42,33.5"/>
	<path class="st0" d="M19.7,51.7c20-0.1,36.5,10.1,50.8,24"/>
	<path class="st0" d="M10.5,45.8c9.4-1.9,17.6,0.1,26.8,2.9S57.4,58.5,66,62.8"/>
	<path class="st0" d="M3.8,41.9c16.7-6.4,34.8-6.2,51.6,0"/>
	<path class="st0" d="M1.8,39.2c5.6-6.1,11.2-6.6,19.5-7.7s16.3-0.3,24.5,0.8"/>
	<path class="st0" d="M75.3,118.6C68.9,99,55.6,78.8,39.7,65.6c-3.1-2.5-38-27.4-39.2-23.9c5.1-14.5,21.3-19.9,35.7-14.5
		s24.1,19.2,29.7,33.5c15.5,39.6,5.3,84.8,15.3,126.1c5.4,22.3,16.5,42.7,23,64.7c11.5,38.9,8.1,80.5,1.8,120.6
		c-4.9,31-11.4,63.1-3,93.3c-2.2-31.7,2.7-57.3,13.9-87c-1.8,25.8-3.1,45.1-3.5,70.9c1.1-19.7,12.2-37.4,24.8-52.5
		c12.6-15.2,27.1-29,36.9-46.1c14.8-25.7,17.6-56.3,20.1-85.9c3.4,32.8-1.6,66.4-14.4,96.7c18-34,30.2-72.6,24.9-110.7
		c-8.4-61.4-58.7-107.6-85.5-163.4c-8.5-17.7-15.1-37.2-29.8-50.2c-8.3-7.4-18.6-12.1-28.9-16.4C50.1,16,40.5,10.3,28,9.8
		C16,9.3,11.6,9.1,0.5,15.3c2.3-13.4,12-13.5,20-14.7c13.4-2,43.4,11.8,50,23.7"/>
</g>
<g id="hair-bottom">
	<path class="st1" d="M52.8,331.8c-3.2,12.7-0.6,26.5,4.3,38.7"/>
	<path class="st1" d="M102.8,249.4C91.7,295,58.3,336.3,15.6,355.5c-6.7,3-8.7,3.9-15,3.9"/>
	<path class="st0" d="M189.6,412.3c0.3,23.7-10.9,47.3-26.1,65.4"/>
	<path class="st0" d="M182.6,392.8c3.4,14.8,0.5,34.3-4.3,48.8c-4.8,14.5-13.2,26.3-20.5,39.6"/>
	<path class="st0" d="M180.1,381.1c2.4,19.2-1.3,34.7-8.2,52.8c-7.2,19.1-16.8,30-20.8,51.1"/>
	<path class="st0" d="M164.8,366.4c3.3,13.3,7.5,30.6,7,44.3c-1.3,35.7-25.1,68-32.6,79.4"/>
	<path class="st0" d="M156.2,376.1c20.3,48.7-5,78.4-15.3,102.7"/>
	<path class="st0" d="M153.3,380.6c2.1,9.4,4,18.8,5.1,28.4c3.4,30.4-6.9,44.7-16.2,60.1"/>
	<path class="st0" d="M124.8,415.4c2.4,17.3-3.6,32.6-12.4,47.7c-8.9,15.1-10.9,17-22.9,29.7"/>
	<path class="st0" d="M128.2,410.8c0.7,15.9,0.8,32.1-4,47.2c-2.4,7.6-6,14.8-9.7,21.9c-3.5,6.9-2.5,6-6,12.9"/>
	<path class="st0" d="M134.2,413.8c5.9,27.6,3.7,54-9.3,79"/>
	<path class="st0" d="M131.6,405.3c10.9,30.6,14.2,55.9,6.6,87.5"/>
	<path class="st0" d="M109.2,276.8c-6.1,26.4-6.9,55.5-1.3,82"/>
	<path class="st0" d="M107.9,267.9c-18.6,47-6.4,98.1-17.6,147.4c-7.6,33.2-20.2,54.8-45.7,77.4"/>
	<path class="st0" d="M96.2,270.4c-4.7,30.5-1,62.4-3.6,93.1c-2.1,24.7-9,49-20.1,71.1c-8,15.8-19.4,31.4-35,39.7"/>
	<path class="st0" d="M81.8,299.1c-4.5,21.8-22.7,41.1-24,63.3"/>
	<path class="st0" d="M91.8,280.8c-3,19-2.4,39.2-4,58.3c-2.3,29.2-11.7,57.9-27,82.9"/>
	<path class="st0" d="M88.5,287.1c-2.3,15.3-4.7,33.4-5.9,47.4c-1.8,20.2-8,41.7-16.7,60"/>
	<path class="st0" d="M178,345.7c1.6,21.6,0.5,20.4,1.5,31.5c1.4,15.2,8.5,29.2,13.4,43.7c4.9,14.5,7.6,31,0.5,44.6
		c-5.2,10-14.9,16.8-24.3,23c17.1-10,30.1-30.4,25-49.5c1.5,13-10.7,23.8-20.8,32.1c-10.1,8.3-20.5,9.6-29.8,22.3"/>
	<path class="st0" d="M62.8,322.1c-3.3,8.3-5.7,25.9-5.2,34.9c1.6,29.6-5.2,59.7-19.5,85.7c-3.3,6-7,11.9-11.5,17.1
		c23.2-23.9,37.3-56.5,38.8-89.7c0.6,13.8,1.3,27.7-1.7,41.2c-4.5,20.5-17,38.3-24.6,57.9c-3.2,8.2-5.6,15.1-3.6,23.6"/>
</g>
<g id="eyebrow">
	<path class="st0" d="M19.8,150.1c0.5-0.7,6.6-10.5,7.4-10.9c0.6-0.4,1.4-0.5,2.1-0.6c5.7-0.9,11.4-1.8,17.1-2.7
		c5.1-0.8,10.2-1.6,15.3-0.9c11.4,1.5,21.9,11.1,30,19.2c-10.4-5.7-24.4-7.2-36.2-6.3c-11.8,1-35.2,2.2-35.2,2.2"/>
	<path class="st0" d="M69.4,137.3c3.3,2.1,6.2,4.9,8.4,8.1"/>
	<path class="st0" d="M61.5,135c3.5,1.6,6.6,4.1,9,7.1"/>
	<path class="st0" d="M55.2,134.7c2.6,0.6,6.1,3.5,8,5.4"/>
	<path class="st0" d="M50.2,135.4c2,0.5,5.2,1.7,6.7,3"/>
	<path class="st0" d="M64.8,147.4c3.5-0.6,12.3-1,16.7,0.3"/>
	<path class="st0" d="M50.8,148.1c6.8-2.9,15.3-4.6,22.7-4"/>
	<path class="st0" d="M44.5,148.4c6.9-3.9,14.4-6.2,22.3-7"/>
	<path class="st0" d="M36.8,149.1c7.4-4.7,16.2-7.3,24.6-9.4"/>
	<path class="st0" d="M31.8,149.1c6.8-5.6,16-8.8,24.7-10.7"/>
	<path class="st0" d="M28.5,149.4c6.2-6.4,13.4-9.8,22-12"/>
	<path class="st0" d="M44.2,137.1c-6.5,3.3-14.2,8-19.7,12.8"/>
	<path class="st0" d="M20.8,150.1c3.9-5.1,8.9-9,14.3-12.3"/>
	<path class="st0" d="M40.8,136.6c15.4,0,35.2,7.2,48.1,15.5"/>
</g>
<g id="eye">
	<path class="st2" d="M55.1,183c0.2,1.2-0.2,3.3-0.6,4.4"/>
	<path class="st2" d="M53,183.5c-0.2,2.4-0.9,3.5-2.6,5.3"/>
	<path class="st2" d="M51.4,182.6c-1,2.1-2.1,3.5-4.1,4.8"/>
	<path class="st2" d="M49.9,180.2c-1.4,1.5-3.2,3.1-4.8,4.4"/>
	<path class="st2" d="M49,178.1c-1.8,1-3.3,2.6-4.6,4.2"/>
	<path class="st2" d="M51.2,175.3c-3.9-0.3-7.5,3.6-7,7.5c0.5,3.9,4.8,6.7,8.6,5.9c3.8-0.8,6.5-5,5.8-8.9c-1.4,2.2-4.2,3.5-6.6,2.6
		c-2.4-0.9-3.4-4.6-1.6-6.4"/>
	<path class="st0" d="M59.5,192.1c4.6-3.4,5.4-10.2,3.7-15.7"/>
	<path class="st0" d="M42.2,174.1c-2.3,0.4-3.9,3.3-4.3,5.7c-0.6,3.3-0.4,6,1.2,9s4.5,5.3,7.8,5.6"/>
	<path class="st0" d="M41.3,193.3c14.4,2.8,30-3.6,39.6-14.7c-0.4,3.6-2.7,6.7-5.7,8.8c-2.9,2.1-7.5,4.8-10.9,5.9
		c-4.4,1.4-7.8,1.2-12.5,1.4c-3.5,0.1-6.9-0.5-10.3-1.3c-3.3-0.8-6.5-1.7-9.9-1.6c-4,0.1-5.6-0.3-9.4,1.3c0,0,7.2-11.3,12.3-15
		c9.3-6.7,21.9-7.7,33.1-5.1c6.1,1.4,12.8,3.6,18.5,0.9c-5.6,4.5-13.7,4.4-20.7,2.9c-7.1-1.5-13.5-3.4-20.7-3.3"/>
	<path class="st0" d="M69,173.5c2.8,1.4,5.5,2.7,8.5,3.5"/>
	<path class="st0" d="M63.5,172.5c3.2,1.7,5,2.9,8,5"/>
	<path class="st0" d="M58.5,171.8c3.1,1.7,5.2,3.1,8,5.3"/>
	<path class="st0" d="M53,172.1c3,0.6,5.8,1.9,8.2,3.8"/>
	<path class="st1" d="M22.3,192.8c2-6.5,4.4-12.1,9.2-16.9c4.8-4.8,11.2-8.1,18-8.5c6.2-0.3,12.2,1.8,18.3,3
		c6.4,1.2,12.9,1.4,19.4,0.6"/>
</g>
<g id="nose-mouth">
	<path class="st1" d="M42.9,279.4c3.4,1.9,5.5,5.8,5.3,9.7"/>
	<path class="st1" d="M0.5,297.2c4.5-3.5,8.9-2,14.5-2.5c8.1-0.7,16.3-2.7,22.4-8.1"/>
	<path class="st1" d="M0.5,288.1c0.9-1.9,0.9-2.9,2.9-3.6c2.1-0.7,4.4,0.4,6.4,1.4c6.3,2.9,13.5,4,20.4,2.9c1.9-0.3,3.8-0.7,5.6-0.1
		c-3.4,6.3-8.7,11.5-14.9,15.2s-13.1,6-20.1,7.3"/>
	<path class="st1" d="M26.8,234c2,3.6,2.3,8,1,11.9s-4,7.2-7.3,9.6"/>
	<path class="st0" d="M4.5,252.8c1.4-0.9,17.2-7.6,13.8-1.5c-1.8,3.1-5.7-2.2-9.3-0.8"/>
</g>
</svg>
