<?xml version="1.0" encoding="utf-8"?>
<!-- Generator: Adobe Illustrator 19.1.0, SVG Export Plug-In . SVG Version: 6.00 Build 0)  -->
<svg version="1.1" id="Layer_3" xmlns="http://www.w3.org/2000/svg" xmlns:xlink="http://www.w3.org/1999/xlink" x="0px" y="0px"
	 viewBox="0 0 239.2 493.3" style="enable-background:new 0 0 239.2 493.3;" xml:space="preserve">
<style type="text/css">
	.st0{fill:#542909;}
	.st1{fill:#E57676;}
</style>
<g id="nose-mouth">
	<g>
		<g>
			<path class="st0" d="M4.8,253.2c3-1.8,6.9-3.1,10.4-3.8c0.5-0.1,2.1-0.5,2.7-0.1c0.5,0.4,0.4,0.5,0.3,1.1
				c-0.2,1.5-1.9,1.2-2.9,0.9c-2.3-0.6-3.9-2.1-6.4-1.4c-0.6,0.2-0.4,1.2,0.3,1c2.8-0.9,6.9,3.5,9.2,1.1c1-1.1,1.4-3-0.1-3.6
				c-2.1-0.9-5.4,0.5-7.3,1.2c-2.2,0.7-4.6,1.5-6.6,2.8C3.7,252.7,4.2,253.6,4.8,253.2L4.8,253.2z"/>
		</g>
	</g>
	<g>
		<g>
			<path class="st1" d="M26.3,234.2c3.9,7.8,0.4,15.9-6.2,20.8c-0.5,0.4,0,1.3,0.5,0.9c7-5.3,10.6-13.9,6.5-22.2
				C26.9,233.2,26.1,233.7,26.3,234.2L26.3,234.2z"/>
		</g>
	</g>
	<g>
		<g>
			<path class="st1" d="M0.9,288.3c2.1-4.8,6.5-2.8,10.3-1.3c2.7,1.1,5.6,1.9,8.5,2.3c2.3,0.3,4.7,0.5,7.1,0.3
				c2-0.1,7.8-1.7,7.5,0.8c-0.3,2.3-4.1,5.4-5.7,7c-2.4,2.3-5,4.3-7.8,6c-6.2,3.7-13,5.8-20,7.2c-0.6,0.1-0.4,1.1,0.3,1
				c14.4-2.9,27.9-9.6,35.3-22.7c0.1-0.3,0-0.7-0.3-0.7c-3.7-0.7-7.3,0.5-11,0.5c-5.3,0-10.1-1.3-15-3.2c-4.6-1.9-7.8-2.7-10,2.4
				C-0.2,288.4,0.7,288.9,0.9,288.3L0.9,288.3z"/>
		</g>
	</g>
	<g>
		<g>
			<path class="st1" d="M0.8,297.7c5.7-3.9,14.2-2,20.9-3.3c6-1.2,11.4-3.4,16.2-7.3c0.5-0.4-0.2-1.1-0.7-0.7
				c-6.2,5.2-14.1,7.3-22.1,7.9c-5.4,0.4-10.1-0.6-14.8,2.5C-0.3,297.2,0.2,298,0.8,297.7L0.8,297.7z"/>
		</g>
	</g>
	<g>
		<g>
			<path class="st1" d="M42.6,279.8c3.3,2,5.2,5.5,5,9.3c0,0.6,1,0.6,1,0c0.1-4.2-2-8-5.5-10.1C42.6,278.6,42.1,279.5,42.6,279.8
				L42.6,279.8z"/>
		</g>
	</g>
</g>
<g id="eye">
	<g>
		<g>
			<path class="st1" d="M22.8,192.9c4-12.4,12.4-24.2,26.7-25c6.8-0.4,13.3,2.2,19.9,3.3c5.9,1,11.8,1,17.8,0.3c0.6-0.1,0.6-1.1,0-1
				c-8.5,1-16.4,0.1-24.7-1.8c-6.4-1.5-12.8-2.7-19.2-0.7c-11.6,3.7-17.8,13.6-21.4,24.6C21.7,193.2,22.6,193.5,22.8,192.9
				L22.8,192.9z"/>
		</g>
	</g>
	<g>
		<g>
			<path class="st0" d="M52.9,172.5c3,0.7,5.7,1.9,8.1,3.7c0.5,0.4,1-0.5,0.5-0.9c-2.5-1.9-5.3-3.1-8.3-3.8
				C52.5,171.4,52.2,172.4,52.9,172.5L52.9,172.5z"/>
		</g>
	</g>
	<g>
		<g>
			<path class="st0" d="M58.3,172.2c2.8,1.5,5.4,3.3,7.9,5.2c0.5,0.4,1.2-0.3,0.7-0.7c-2.6-2-5.2-3.8-8.1-5.4
				C58.2,171,57.7,171.9,58.3,172.2L58.3,172.2z"/>
		</g>
	</g>
	<g>
		<g>
			<path class="st0" d="M63.3,172.9c2.8,1.5,5.4,3.2,8,5c0.5,0.4,1-0.5,0.5-0.9c-2.6-1.8-5.2-3.5-8-5
				C63.2,171.7,62.7,172.6,63.3,172.9L63.3,172.9z"/>
		</g>
	</g>
	<g>
		<g>
			<path class="st0" d="M68.8,173.9c2.8,1.4,5.6,2.7,8.6,3.5c0.6,0.2,0.9-0.8,0.3-1c-2.9-0.8-5.7-2.1-8.4-3.4
				C68.7,172.8,68.2,173.6,68.8,173.9L68.8,173.9z"/>
		</g>
	</g>
	<g>
		<g>
			<path class="st0" d="M41.1,193.7c12.3,2.1,25-1.6,34.6-9.5c1.2-1,2.2-2.1,3.4-3.1c3-2.6-0.4,1.7-1.1,2.7
				c-2.6,3.6-7.3,6.1-11.3,7.9c-7.9,3.5-17.7,2.8-25.9,0.9c-3.4-0.8-6.5-1.4-10-1.4c-3.1,0-5,0.5-7.6,1.3c-0.7,0.2-0.4,0.6,0.2-0.4
				c0.5-0.8,1.1-1.6,1.6-2.4c1.8-2.5,3.6-5,5.6-7.3c5.2-5.9,12.2-9,19.9-10c8.6-1.2,16.3,1.1,24.7,2.6c2.9,0.5,6.7,1.1,9.5-0.2
				c0-0.1,0-0.2,0-0.3c0-0.8-0.4-0.6-1.3,0.4c-1.4,0.3-2.7,1.1-4.1,1.5c-2.4,0.6-5.1,0.7-7.6,0.5c-9.1-0.6-17.7-4.1-26.9-4.2
				c-0.6,0-0.6,1,0,1c13.4,0.2,29.3,9.3,41.6,0.4c0.4-0.3,0.2-1.1-0.4-0.9c-8,3.3-16.4-1.1-24.6-1.9c-6.8-0.7-13.9-0.1-20.2,2.5
				c-8.9,3.5-14.4,11.1-19.4,18.9c-0.2,0.3,0.2,0.9,0.6,0.7c6.5-2.5,13.3-0.9,19.8,0.5c5.7,1.2,11.6,1.5,17.4,0.8
				c8.5-1.1,20-6.9,21.7-16.1c0.1-0.5-0.5-0.9-0.8-0.5c-9.8,11-24.4,17.1-39.1,14.5C40.8,192.7,40.5,193.6,41.1,193.7L41.1,193.7z"
				/>
		</g>
	</g>
	<g>
		<g>
			<path class="st0" d="M42,173.6c-4.5,1.5-5.5,7.3-4.8,11.4c0.9,4.9,4.5,9,9.5,9.7c0.6,0.1,0.9-0.9,0.3-1c-3.8-0.6-6.6-2.9-8-6.5
				c-1.5-3.8-1.6-11.1,3.3-12.7C42.9,174.4,42.7,173.4,42,173.6L42,173.6z"/>
		</g>
	</g>
	<g>
		<g>
			<path class="st0" d="M59.9,192.4c4.8-3.9,5.4-10.5,3.8-16.1c-0.2-0.6-1.1-0.4-1,0.3c1.5,5.3,1,11.5-3.6,15.2
				C58.6,192.1,59.4,192.8,59.9,192.4L59.9,192.4z"/>
		</g>
	</g>
	<g>
		<g>
			<path d="M51.2,174.8c-6.9-0.1-10.1,8.6-4.5,12.8c5.9,4.5,13.3-1,12.5-7.8c-0.1-0.5-0.6-0.7-0.9-0.3c-1.3,1.7-3.4,3.1-5.6,2.4
				c-2.2-0.8-3.5-3.5-1.8-5.6c0.4-0.5-0.3-1.2-0.7-0.7c-1.7,2-1.3,5.1,0.8,6.7c2.8,2,6.3,0.2,8.1-2.3c-0.3-0.1-0.6-0.2-0.9-0.3
				c0.6,5.4-4.6,10.5-9.9,7.6c-5.7-3.1-3.6-11.7,3-11.6C51.9,175.8,51.9,174.8,51.2,174.8L51.2,174.8z"/>
		</g>
	</g>
	<g>
		<g>
			<path d="M48.7,177.7c-1.9,1.1-3.3,2.7-4.7,4.3c-0.4,0.5,0.3,1.2,0.7,0.7c1.3-1.6,2.7-3.1,4.5-4.1
				C49.8,178.2,49.3,177.4,48.7,177.7L48.7,177.7z"/>
		</g>
	</g>
	<g>
		<g>
			<path d="M49.5,179.8c-1.5,1.6-3.1,3-4.8,4.4c-0.5,0.4,0.2,1.1,0.7,0.7c1.7-1.4,3.3-2.8,4.8-4.4C50.7,180,50,179.3,49.5,179.8
				L49.5,179.8z"/>
		</g>
	</g>
	<g>
		<g>
			<path d="M50.9,182.4c-0.9,1.9-2.1,3.4-3.9,4.6c-0.5,0.4,0,1.2,0.5,0.9c1.9-1.3,3.3-2.9,4.3-5C52.1,182.3,51.2,181.8,50.9,182.4
				L50.9,182.4z"/>
		</g>
	</g>
	<g>
		<g>
			<path d="M52.5,183.5c-0.2,2.1-1,3.5-2.5,4.9c-0.5,0.5,0.3,1.2,0.7,0.7c1.6-1.7,2.5-3.3,2.8-5.6C53.5,182.8,52.5,182.8,52.5,183.5
				L52.5,183.5z"/>
		</g>
	</g>
	<g>
		<g>
			<path d="M54.7,183.2c0.2,1.3-0.1,2.9-0.6,4.1c-0.2,0.6,0.7,0.9,1,0.3c0.6-1.4,0.9-3.1,0.6-4.7C55.5,182.3,54.5,182.5,54.7,183.2
				L54.7,183.2z"/>
		</g>
	</g>
</g>
<g id="eyebrow">
	<g>
		<g>
			<path class="st0" d="M40.8,137.1c16.7,0.2,33.8,6.6,47.9,15.4c0.5,0.3,1-0.5,0.5-0.9c-14.2-8.9-31.4-15.3-48.4-15.5
				C40.2,136.1,40.2,137.1,40.8,137.1L40.8,137.1z"/>
		</g>
	</g>
	<g>
		<g>
			<path class="st0" d="M21.2,150.4c3.9-5,8.9-8.9,14.2-12.3c0.5-0.3,0-1.2-0.5-0.9c-5.4,3.4-10.5,7.3-14.4,12.4
				C20.1,150.2,20.8,150.9,21.2,150.4L21.2,150.4z"/>
		</g>
	</g>
	<g>
		<g>
			<path class="st0" d="M43.9,136.7c-7,3.6-13.8,7.7-19.8,12.9c-0.5,0.4,0.2,1.1,0.7,0.7c6-5,12.7-9.1,19.6-12.7
				C45,137.2,44.5,136.4,43.9,136.7L43.9,136.7z"/>
		</g>
	</g>
	<g>
		<g>
			<path class="st0" d="M28.9,149.8c6.1-6.1,13.5-9.6,21.8-11.9c0.6-0.2,0.4-1.1-0.3-1c-8.4,2.3-16,5.9-22.2,12.1
				C27.7,149.5,28.4,150.2,28.9,149.8L28.9,149.8z"/>
		</g>
	</g>
	<g>
		<g>
			<path class="st0" d="M32.2,149.4c7.2-5.6,15.7-8.6,24.4-10.5c0.6-0.1,0.4-1.1-0.3-1c-9,2-17.6,5.1-24.9,10.8
				C31,149.1,31.7,149.8,32.2,149.4L32.2,149.4z"/>
		</g>
	</g>
	<g>
		<g>
			<path class="st0" d="M37.1,149.5c7.6-4.6,16-7.2,24.5-9.4c0.6-0.2,0.4-1.1-0.3-1c-8.6,2.1-17.1,4.8-24.8,9.5
				C36,149,36.5,149.9,37.1,149.5L37.1,149.5z"/>
		</g>
	</g>
	<g>
		<g>
			<path class="st0" d="M44.8,148.8c6.9-3.8,14.3-6,22.1-6.9c0.6-0.1,0.6-1.1,0-1c-8,0.9-15.5,3.2-22.6,7.1
				C43.7,148.3,44.2,149.2,44.8,148.8L44.8,148.8z"/>
		</g>
	</g>
	<g>
		<g>
			<path class="st0" d="M51,148.6c7.2-2.9,14.8-4.4,22.5-4c0.6,0,0.6-1,0-1c-7.8-0.5-15.5,1.1-22.8,4
				C50.1,147.8,50.4,148.8,51,148.6L51,148.6z"/>
		</g>
	</g>
	<g>
		<g>
			<path class="st0" d="M65,147.9c5.2-0.8,11.3-1.1,16.4,0.3c0.6,0.2,0.9-0.8,0.3-1c-5.3-1.5-11.5-1.2-16.9-0.3
				C64.1,147,64.4,148,65,147.9L65,147.9z"/>
		</g>
	</g>
	<g>
		<g>
			<path class="st0" d="M50,135.9c2.2,0.6,4.7,1.4,6.4,2.9c0.5,0.4,1.2-0.3,0.7-0.7c-1.9-1.6-4.5-2.5-6.9-3.1
				C49.7,134.8,49.4,135.7,50,135.9L50,135.9z"/>
		</g>
	</g>
	<g>
		<g>
			<path class="st0" d="M55.1,135.1c3,0.8,5.6,3.2,7.8,5.3c0.5,0.5,1.2-0.3,0.7-0.7c-2.3-2.3-5-4.8-8.2-5.6
				C54.7,134,54.4,135,55.1,135.1L55.1,135.1z"/>
		</g>
	</g>
	<g>
		<g>
			<path class="st0" d="M61.3,135.5c3.5,1.7,6.4,4,8.9,7c0.4,0.5,1.1-0.2,0.7-0.7c-2.5-3-5.5-5.4-9.1-7.1
				C61.2,134.3,60.7,135.2,61.3,135.5L61.3,135.5z"/>
		</g>
	</g>
	<g>
		<g>
			<path class="st0" d="M69.1,137.7c3.3,2.1,6.1,4.8,8.3,8c0.4,0.5,1.2,0,0.9-0.5c-2.3-3.3-5.2-6.1-8.6-8.3
				C69.1,136.5,68.6,137.4,69.1,137.7L69.1,137.7z"/>
		</g>
	</g>
	<g>
		<g>
			<path class="st0" d="M20.3,150.3c2.1-3.1,3.9-6.9,6.4-9.7c2.3-2.5,7.1-2.3,10.3-2.8c5-0.8,10-1.8,15.1-2.3
				c9.3-1.1,17.2,1.2,24.9,6.5c3.5,2.4,6.8,5.2,9.9,8.1c0.3,0.3,3.5,2.8,3.4,3.3c0.2-1-1.6-1.3-2.7-1.8c-12.9-5.3-26.5-4.6-40.1-3.7
				c-9.1,0.6-18.2,1.2-27.3,1.6c-0.6,0-0.6,1,0,1c8.9-0.5,17.8-1,26.6-1.6c15.3-1,30.5-1.8,44.6,5.5c0.5,0.3,1-0.4,0.6-0.8
				c-5.8-5.8-12-11.6-19.3-15.6c-7.6-4.1-15.1-4.5-23.6-3.3c-5.1,0.7-10.1,1.6-15.2,2.4c-2.4,0.4-5.6,0.3-7.5,2
				c-2.9,2.6-4.8,7.3-7,10.5C19.1,150.4,19.9,150.9,20.3,150.3L20.3,150.3z"/>
		</g>
	</g>
</g>
<g id="hair-bottom">
	<g>
		<g>
			<path class="st0" d="M62.4,322c-7.5,20.2-3.6,41.7-6.1,62.6c-3.2,26.4-12.7,54.4-30,74.9c-0.4,0.5,0.3,1.2,0.7,0.7
				c23.3-24.3,37.2-56.5,38.9-90.1c-0.3,0-0.7,0-1,0c0.6,12.1,1.1,24.4-0.8,36.4c-1.8,11.1-6,21.4-10.9,31.5
				c-4.2,8.8-8.9,17.3-12.7,26.3c-3.9,9.2-7.6,18.5-5.6,28.6c0.1,0.6,1.1,0.4,1-0.3c-2.4-11.9,3.4-23.7,8.3-34.2
				c4.4-9.3,9.3-18.3,13.4-27.7c3.7-8.6,6.6-17.5,7.8-26.8c1.5-11.2,0.9-22.6,0.4-33.9c0-0.6-1-0.6-1,0
				c-1.8,33.4-15.5,65.2-38.6,89.4c0.2,0.2,0.5,0.5,0.7,0.7c16.3-19.4,25.7-45.4,29.5-70.2c3.4-22.5-1.3-46,6.8-67.7
				C63.6,321.6,62.6,321.4,62.4,322L62.4,322z"/>
		</g>
	</g>
	<g>
		<g>
			<path class="st0" d="M206.4,258.4c9.2,17.1,14.5,36.1,15.1,55.6c0.5,18.4-4.1,36.3,0.7,54.5c4.7,17.9,14.6,34.4,15.9,53.3
				c0.6,9.4-1.1,18.8-6.6,26.6c-5.5,7.9-13.7,13.5-21.7,18.7c-0.5,0.4-0.1,1.2,0.5,0.9c16.9-10.2,30.2-29.7,25.2-50.1
				c-0.1-0.5-1-0.4-1,0.1c0.8,10.7-6.4,19-13.8,25.8c-7.9,7.3-16.7,13-26,18.4c-7.4,4.3-14.9,8.8-21.7,14.1c-5.6,4.3-9,10-12.3,16.2
				c-0.3,0.6,0.6,1.1,0.9,0.5c2.8-5.2,5.7-10.4,10.1-14.3c5.1-4.5,11.1-8.1,16.9-11.6c12.6-7.6,25.1-14.7,35.6-25.2
				c4-4,7.9-8.7,9.9-14.1c0.3-0.8,2.6-7.4,1.5-8.3c-0.9-0.8-0.1,4.6,0,5c0.1,1.7,0.1,3.4,0,5c-1.3,15.9-12.6,29.6-25.8,37.5
				c0.2,0.3,0.3,0.6,0.5,0.9c10.6-7,21.6-14.8,26.3-27.1c5-13.2,2.2-28-2.2-41c-5.2-15.2-12.7-30-13.6-46.3
				c-0.8-16.2,2.8-32.1,1.2-48.3c-1.7-16.6-6.7-32.6-14.6-47.3C207,257.4,206.1,257.9,206.4,258.4L206.4,258.4z"/>
		</g>
	</g>
	<g>
		<g>
			<path class="st0" d="M88,287c-2.6,17-4.4,33.9-6.3,51c-2.2,19.5-8,38.5-16.3,56.3c-0.3,0.6,0.6,1.1,0.9,0.5
				c7.9-16.8,13.5-34.7,16-53.1c2.5-18.1,4-36.3,6.7-54.3C89.1,286.6,88.1,286.3,88,287L88,287z"/>
		</g>
	</g>
	<g>
		<g>
			<path class="st0" d="M91.4,280.6c-3.7,24.5-1.8,49.5-5.9,74c-4,23.7-12.5,46.5-25,67.1c-0.3,0.6,0.5,1.1,0.9,0.5
				C73.5,402,82,379.8,86.1,356.6c4.4-25,2.4-50.6,6.2-75.7C92.4,280.3,91.5,280,91.4,280.6L91.4,280.6z"/>
		</g>
	</g>
	<g>
		<g>
			<path class="st0" d="M81.4,299c-5,22.3-22.2,40.3-24,63.5c0,0.6,1,0.6,1,0c1.8-23.1,19-41,24-63.2
				C82.5,298.6,81.5,298.3,81.4,299L81.4,299z"/>
		</g>
	</g>
	<g>
		<g>
			<path class="st0" d="M95.7,270.3c-5.6,37.7,0.9,76.2-6.4,113.8c-3.5,18.2-9.7,36-18.3,52.4c-7.9,15-18.6,29.1-33.7,37.5
				c-0.6,0.3-0.1,1.2,0.5,0.9c14.1-7.8,24.4-20.5,32.2-34.4c8.9-15.8,15.2-33.2,19.2-50.8c8.8-39.3,1.6-79.6,7.6-119.1
				C96.8,269.9,95.8,269.6,95.7,270.3L95.7,270.3z"/>
		</g>
	</g>
	<g>
		<g>
			<path class="st0" d="M107.4,267.8c-12.1,31.2-11.2,64.7-12.2,97.6c-1,31.3-4.9,63.6-20.8,91.2c-7.9,13.7-18.5,25.3-30.2,35.8
				c-0.5,0.4,0.2,1.1,0.7,0.7c20.2-18,35-39.4,42.7-65.5c9.7-32.8,8-66.7,9.7-100.4c1-20.2,3.7-40.2,11.1-59.1
				C108.6,267.5,107.6,267.2,107.4,267.8L107.4,267.8z"/>
		</g>
	</g>
	<g>
		<g>
			<path class="st0" d="M108.7,276.6c-6.1,27-6.9,55.1-1.3,82.3c0.1,0.6,1.1,0.4,1-0.3c-5.5-27-4.8-54.9,1.3-81.7
				C109.8,276.3,108.8,276,108.7,276.6L108.7,276.6z"/>
		</g>
	</g>
	<g>
		<g>
			<path class="st0" d="M131.1,405.4c5,14,8.9,28.4,10.2,43.2c1.3,14.8-0.2,29.5-3.6,44c-0.1,0.6,0.8,0.9,1,0.3
				c3.4-14.5,5-29.3,3.7-44.2c-1.3-14.9-5.3-29.4-10.3-43.5C131.9,404.6,130.9,404.8,131.1,405.4L131.1,405.4z"/>
		</g>
	</g>
	<g>
		<g>
			<path class="st0" d="M133.7,413.9c5.6,26.9,3.3,54-9.3,78.6c-0.3,0.6,0.6,1.1,0.9,0.5c12.7-24.9,15-52.2,9.4-79.4
				C134.5,413,133.6,413.3,133.7,413.9L133.7,413.9z"/>
		</g>
	</g>
	<g>
		<g>
			<path class="st0" d="M127.7,410.8c0.6,15.4,0.8,31.2-3.7,46.2c-3.7,12.2-10.1,24.1-15.8,35.6c-0.3,0.6,0.6,1.1,0.9,0.5
				c5.8-11.5,12.2-23.5,16-35.8c4.6-15,4.4-30.9,3.8-46.4C128.7,410.1,127.7,410.1,127.7,410.8L127.7,410.8z"/>
		</g>
	</g>
	<g>
		<g>
			<path class="st0" d="M124.3,415.4c3.7,29.7-15.9,56.6-35.2,77c-0.4,0.5,0.3,1.2,0.7,0.7c19.5-20.6,39.2-47.7,35.5-77.7
				C125.3,414.8,124.3,414.8,124.3,415.4L124.3,415.4z"/>
		</g>
	</g>
	<g>
		<g>
			<path class="st0" d="M152.9,380.7c4,18,8.1,37,4.2,55.3c-2.6,12.1-8.9,22.3-15.3,32.7c-0.3,0.6,0.5,1.1,0.9,0.5
				c6.6-10.9,13.2-21.6,15.6-34.3c3.5-18.1-0.5-36.8-4.4-54.6C153.7,379.9,152.7,380.1,152.9,380.7L152.9,380.7z"/>
		</g>
	</g>
	<g>
		<g>
			<path class="st0" d="M155.7,376.2c8,19.7,10,40.4,3.6,60.8c-4.6,14.6-12.9,27.5-18.9,41.4c-0.3,0.6,0.6,1.1,0.9,0.5
				c6.2-14.4,14.8-27.7,19.4-42.9c6.1-20.2,3.9-40.8-4-60.2C156.4,375.4,155.5,375.6,155.7,376.2L155.7,376.2z"/>
		</g>
	</g>
	<g>
		<g>
			<path class="st0" d="M164.4,366.6c3.1,12.4,6.2,25,6.9,37.8c0.6,12.6-2,25.1-6.1,36.9c-6.2,17.6-16.1,33.1-26.4,48.5
				c-0.4,0.5,0.5,1,0.9,0.5c10.6-15.9,20.8-32,27-50.3c3.9-11.4,6.2-23.6,5.6-35.7c-0.7-12.9-3.8-25.6-6.9-38.1
				C165.2,365.7,164.2,365.9,164.4,366.6L164.4,366.6z"/>
		</g>
	</g>
	<g>
		<g>
			<path class="st0" d="M181.4,336.3c-4.9,19.3-1.4,39.1-1.2,58.7c0.1,7,0.6,14.1-0.4,21.1c-1.1,7.5-4.4,14.2-7.9,20.8
				c-0.3,0.6,0.6,1.1,0.9,0.5c3.2-5.9,6.3-12,7.6-18.6c1.3-6.2,1-12.6,0.9-18.9c-0.3-20.9-4.1-42.7,1.2-63.3
				C182.5,335.9,181.5,335.7,181.4,336.3L181.4,336.3z"/>
		</g>
	</g>
	<g>
		<g>
			<path class="st0" d="M185,327.1c-0.1,6.1,0,12.1,1.4,18.1c0.1,0.6,1.1,0.4,1-0.3c-1.4-5.9-1.4-11.8-1.4-17.8
				C186,326.4,185,326.4,185,327.1L185,327.1z"/>
		</g>
	</g>
	<g>
		<g>
			<path class="st0" d="M187.4,347.3c6,23.2,2.9,47.8-4.3,70.3c-0.2,0.6,0.8,0.9,1,0.3c7.3-22.7,10.3-47.5,4.3-70.8
				C188.2,346.4,187.2,346.7,187.4,347.3L187.4,347.3z"/>
		</g>
	</g>
	<g>
		<g>
			<path class="st0" d="M196.8,324.4c8.1,28-0.2,56.4-8.5,83.3c-0.2,0.6,0.8,0.9,1,0.3c8.3-27.1,16.6-55.6,8.5-83.8
				C197.6,323.5,196.6,323.7,196.8,324.4L196.8,324.4z"/>
		</g>
	</g>
	<g>
		<g>
			<path class="st0" d="M201,310.9c9.3,36.1,1.4,71.8-16.4,103.9c-7.9,14.2-16.9,27.9-24,42.6c-5.5,11.3-8.1,23-10.3,35.3
				c-0.1,0.6,0.9,0.9,1,0.3c2.4-13.5,5.5-26,11.8-38.3c8-15.6,17.7-30.2,25.8-45.7c15.9-30.4,21.7-64.7,13.1-98.3
				C201.8,310,200.9,310.3,201,310.9L201,310.9z"/>
		</g>
	</g>
	<g>
		<g>
			<path class="st0" d="M204.3,296.1c0.2,17.7,5,35,5.3,52.7c0.3,16.4-3.7,32.5-9.5,47.7c-11.3,29.7-28.6,57-35,88.5
				c-0.1,0.6,0.8,0.9,1,0.3c6.5-32,24.3-59.7,35.6-89.9c5.4-14.6,9.1-30,9-45.6c-0.2-18-5.2-35.6-5.3-53.6
				C205.3,295.4,204.3,295.4,204.3,296.1L204.3,296.1z"/>
		</g>
	</g>
	<g>
		<g>
			<path class="st0" d="M205.7,281.3c7.9,14.8,8.9,31,8.5,47.4c-0.3,16.2-0.6,32.6-2.5,48.8c-1.9,16.1-6.2,31-11.9,46.1
				c-5.1,13.6-9.7,27.1-10.3,41.7c0,0.6,1,0.6,1,0c0.6-16.2,6.4-31,11.9-46.1c5.5-14.8,9-29.8,10.6-45.5c1.6-16.6,2.1-33.5,2.2-50.1
				c0.1-14.9-1.6-29.5-8.8-42.8C206.3,280.3,205.4,280.8,205.7,281.3L205.7,281.3z"/>
		</g>
	</g>
	<g>
		<g>
			<path class="st0" d="M220.5,360.2c2.4,20.5-2.3,41.4-11.3,59.9c-7.1,14.6-16.9,27.2-17.6,44c0,0.6,1,0.6,1,0
				c0.8-18.3,12.7-31.8,19.5-48c7.5-17.8,11.6-36.6,9.4-55.9C221.4,359.5,220.4,359.5,220.5,360.2L220.5,360.2z"/>
		</g>
	</g>
	<g>
		<g>
			<path class="st0" d="M223,372c3.2,15,1,31.1-3.4,45.7c-4.6,15.3-13.7,28.5-21.4,42.3c-0.3,0.6,0.6,1.1,0.9,0.5
				c8-14.4,17.3-28,21.9-44c4.1-14.3,6.1-30,3-44.7C223.9,371.1,222.9,371.4,223,372L223,372z"/>
		</g>
	</g>
	<g>
		<g>
			<path class="st0" d="M230,391.4c0,24.1-10.8,46.8-26,65.1c-0.4,0.5,0.3,1.2,0.7,0.7c15.3-18.5,26.3-41.4,26.3-65.8
				C231,390.8,230,390.8,230,391.4L230,391.4z"/>
		</g>
	</g>
	<g>
		<g>
			<path class="st1" d="M102.4,249.3c-6.4,25.7-19.3,49.4-37.1,69c-8.8,9.7-18.7,18.3-29.6,25.5c-10.1,6.7-22.7,14.9-35.1,15.1
				c-0.6,0-0.6,1,0,1c12-0.2,23.9-7.7,33.7-14c11.3-7.2,21.6-16,30.7-25.8c18.4-19.9,31.8-44.3,38.4-70.6
				C103.5,248.9,102.5,248.7,102.4,249.3L102.4,249.3z"/>
		</g>
	</g>
	<g>
		<g>
			<path class="st1" d="M52.4,331.6c-3.1,13.2-0.5,26.5,4.3,38.9c0.2,0.6,1.2,0.3,1-0.3c-4.8-12.3-7.4-25.4-4.3-38.4
				C53.5,331.3,52.5,331,52.4,331.6L52.4,331.6z"/>
		</g>
	</g>
</g>
<g id="hair-top">
	<g>
		<g>
			<path class="st0" d="M75.8,118.5c-6.3-18.8-17.4-36.5-32-50C36,61.3,26.8,55.6,18,49.9c-4.4-2.9-8.9-6-13.8-8
				c-1-0.4-2.2-0.5-3.1-0.9c-0.2-0.1-0.6,0.2-0.6,0.2c0,0-0.3,0.2-0.3,0.2c0.6,0.7,2.3-3,2.7-3.6c6.2-8.4,14.6-13,25.3-11.8
				c10.5,1.1,19.6,7.8,26.2,15.8c14.3,17.6,18.3,41.8,19.9,63.7c1.5,22,0.5,44.1,3.5,66c3.1,22.9,12.5,43.5,20.6,64.9
				c8.6,22.7,12.6,46.2,12.8,70.4c0.2,27.7-4.2,54.9-8.4,82.1c-4,25.4-7,51.5-0.3,76.8c0.1,0.5,1,0.4,1-0.1
				c-1.7-26.2,1.9-51.7,10.2-76.6c0.5-1.6,3.5-7.1,3-8.6c-0.1-0.4-0.7,3.3-0.7,4c-0.1,1.9-0.3,3.8-0.4,5.6
				c-0.4,6.5-0.9,13.1-1.2,19.6c-0.8,13.3-1.2,26.5-1.5,39.8c0,0.6,1,0.6,1,0c2.5-36.7,34.5-59.9,54.6-87.5
				c20.6-28.4,24.4-63.1,27.3-97c-0.3,0-0.7,0-1,0c3.3,32.9-1.7,66.1-14.4,96.6c-0.2,0.5,0.7,0.9,0.9,0.4
				c18.6-35.3,31.2-75.6,24.3-115.7c-6.1-35.3-26-65.9-45.6-95.1c-10.2-15.1-20.5-30.1-29.6-45.9c-9.3-16.1-15.5-33.7-24.8-49.7
				c-4.4-7.6-9.7-14.6-16.5-20.2c-7.2-5.9-15.5-10-24-13.6C48.7,14.7,33.3,7,15.1,9.3c-3.2,0.4-6.2,1.3-9.1,2.6
				c-1,0.4-2.4,1.5-3.4,1.7c-1.6,0.2-1,0.5-0.8-1.2c0.2-2.4,2.4-5.3,4.1-6.8C10.9,1.2,20.5,0.4,27,1.1c8.5,1,16.9,4.4,24.4,8.3
				C58.3,13,66,17.6,70.1,24.5c0.3,0.6,1.2,0.1,0.9-0.5c-3.5-6-9.8-10.2-15.6-13.6C48,6.2,39.8,2.7,31.5,0.9
				c-6.2-1.4-12.3-1-18.5,0.4C5.5,3,1.5,7.7,0,15.1c-0.1,0.4,0.3,0.8,0.7,0.6c16.5-9.1,34.4-6,51.1,1.4
				c17.2,7.7,34.9,14.1,46.7,29.7c10.1,13.4,15.6,29.5,23,44.4C129,106,137.9,120,147,133.8c18.6,28,39.2,55.6,50.7,87.5
				c13.1,36.2,9.9,74.1-3.6,109.7c-2,5.3-4.2,10.6-6.6,15.8c-1.1,2.5-2.3,4.9-3.5,7.4c-0.5,1.1-1.1,2.2-1.6,3.2
				c-0.2,0.5-1.9,3.5-0.5,2.7c1.1-0.6,2.6-6.6,3-7.7c0.9-2.6,1.8-5.2,2.6-7.8c1.7-5.2,3.1-10.5,4.3-15.9c4.7-20.9,6-42.5,3.8-63.8
				c-0.1-0.6-0.9-0.6-1,0c-1.5,18-3.1,36-7.5,53.6c-4.7,18.5-12.9,34.9-24.8,49.7c-19.8,24.6-47.2,47.4-49.5,81.2c0.3,0,0.7,0,1,0
				c0.4-23.7,1.9-47.3,3.5-70.9c0-0.6-0.8-0.6-1-0.1c-6.7,17.9-11.8,36.3-13.6,55.4c-0.3,2.9-1.5,29.9-0.1,29.8
				c-0.2,0-2.4-14.3-2.5-15.5c-0.6-5.6-0.8-11.2-0.8-16.8c0.2-22.1,4.8-43.8,8-65.5c3-20.5,5.1-41.1,4.8-61.9
				c-0.4-20.8-3.5-41.4-10.3-61.1c-6.7-19.3-16-37.8-20.6-57.8c-9-39.2,0-80.9-13-119.4c-5.4-16-15.3-32.5-31.8-38.8
				C22,21.4,5.7,26.9,0,41.6c-0.2,0.5,0.6,0.9,0.9,0.4c1.4-2.4,31.3,18.7,34,20.7c18.8,13.5,32.5,34.2,39.8,56
				C75,119.3,76,119.1,75.8,118.5L75.8,118.5z"/>
		</g>
	</g>
	<g>
		<g>
			<path class="st0" d="M2.1,39.6c5.3-5.5,11.8-6.7,19.1-7.5c8.2-1,16.3-0.3,24.5,0.8c0.6,0.1,0.6-0.9,0-1c-13.8-1.8-33.6-4-44.3,7
				C1,39.3,1.7,40,2.1,39.6L2.1,39.6z"/>
		</g>
	</g>
	<g>
		<g>
			<path class="st0" d="M3.9,42.4c16.8-6.2,34.5-6,51.3,0c0.6,0.2,0.9-0.8,0.3-1c-17-6-34.9-6.2-51.9,0C3,41.7,3.3,42.6,3.9,42.4
				L3.9,42.4z"/>
		</g>
	</g>
	<g>
		<g>
			<path class="st0" d="M10.6,46.2c20.4-3.6,37.8,8.2,55.1,16.9c0.6,0.3,1.1-0.6,0.5-0.9c-17.5-8.9-35.2-20.7-55.9-17.1
				C9.7,45.4,10,46.3,10.6,46.2L10.6,46.2z"/>
		</g>
	</g>
	<g>
		<g>
			<path class="st0" d="M19.7,52.2c19.9,0.1,36.5,10.5,50.4,23.9c0.5,0.4,1.2-0.3,0.7-0.7c-14.1-13.6-31-24-51.1-24.1
				C19.1,51.2,19.1,52.2,19.7,52.2L19.7,52.2z"/>
		</g>
	</g>
	<g>
		<g>
			<path class="st0" d="M30.9,59.2C48.3,66,61.2,78.2,72.7,92.6c0.4,0.5,1.1-0.2,0.7-0.7C61.8,77.3,48.7,65.1,31.1,58.3
				C30.5,58,30.3,59,30.9,59.2L30.9,59.2z"/>
		</g>
	</g>
	<g>
		<g>
			<path class="st0" d="M5.7,12.9C10.5,6.5,17,3.8,24.3,1.1c0.6-0.2,0.3-1.2-0.3-1C16.5,3,9.8,5.8,4.8,12.4
				C4.4,12.9,5.3,13.4,5.7,12.9L5.7,12.9z"/>
		</g>
	</g>
	<g>
		<g>
			<path class="st0" d="M14.8,10.7c3.1-1.6,5.6-3.8,8.9-4.9c4.1-1.4,8.3-2.1,12.5-2.4c0.6-0.1,0.6-1.1,0-1
				c-4.4,0.4-8.6,1.1-12.8,2.5c-3.4,1.2-6,3.3-9.2,5C13.7,10.1,14.2,11,14.8,10.7L14.8,10.7z"/>
		</g>
	</g>
	<g>
		<g>
			<path class="st0" d="M0.5,15.3c21,0.7,42.8,9.2,57.9,23.9c17.9,17.4,19.8,42.5,19.3,66.1c-0.3,12-1,23.9-0.3,35.9
				c0.7,12.7,3.4,25.2,6.5,37.5c3.2,12.8,6.4,25.6,10.4,38.2c4,12.4,9.7,23.8,14.6,35.8c5.7,13.9,7.1,29.7,7.7,44.6
				c0.6,15.3-1.1,30.5-7,44.7c-0.2,0.6,0.6,1.1,0.9,0.5c10-23.6,8.7-51.3,3.7-75.9c-2.7-13.4-9.7-24.9-14.5-37.5
				c-5.1-13.4-8.8-27.3-12.3-41.2c-3.8-14.7-7.7-29.6-8.7-44.8c-0.8-12.5,0-25.1,0.2-37.6c0.5-22.5-1-47-17.2-64.3
				C46.2,24.5,22.8,15,0.5,14.3C-0.1,14.2-0.1,15.2,0.5,15.3L0.5,15.3z"/>
		</g>
	</g>
	<g>
		<g>
			<path class="st0" d="M11.5,11.3c12.1,1.6,24.2,7.2,34.7,13.3c11.9,6.9,22.3,17.8,30.3,28.9c9.8,13.5,12.8,28.6,12.8,45
				c0,16.8-1.3,33.5-0.9,50.2c0.4,15.6,2.5,31,7.2,45.9c4.7,14.6,11.3,28.6,17.9,42.4c13.8,29,28.9,60.5,24.1,93.5
				c-2.4,16.5-10,30-21.1,42.2c-8.4,9.3-15,18.2-16,31.1c-0.1,0.6,1,0.6,1,0c1.1-14.5,9.7-23.4,18.7-33.8
				c9.1-10.4,15.2-22.3,17.7-35.9c5.8-30.6-6.2-60.6-19-87.8c-7.3-15.5-15-30.7-20.7-46.9c-5.9-16.7-8.6-34-9-51.7
				c-0.4-17.3,1.1-34.7,0.9-52c-0.2-14.8-3.2-28.4-11.6-40.8c-15-22.4-40-41-67.3-44.6C10.9,10.2,10.9,11.2,11.5,11.3L11.5,11.3z"/>
		</g>
	</g>
	<g>
		<g>
			<path class="st0" d="M111.5,232.6c7.4,23.6,14.6,47.4,18.4,72c1.9,12.4,2.8,25.4-1.6,37.4c-4,11-11.9,20.2-21.9,26.3
				c-0.6,0.3,0,1.2,0.5,0.9c20.5-12.4,27.3-34.3,24.9-57.3c-2.8-27.1-11.2-53.6-19.3-79.5C112.3,231.7,111.3,232,111.5,232.6
				L111.5,232.6z"/>
		</g>
	</g>
	<g>
		<g>
			<path class="st0" d="M100,206.4c6.9,24.6,13.3,49.4,19.9,74.1c3.4,12.4,6.9,25.2,7.6,38.1c0.7,13.3-4.5,28.3-18.7,32.2
				c-0.6,0.2-0.4,1.1,0.3,1c26.5-7.3,19.3-41.3,14.6-60.6c-3.4-13.9-7.6-27.6-11.2-41.5c-3.8-14.5-7.5-29.1-11.6-43.5
				C100.8,205.5,99.9,205.8,100,206.4L100,206.4z"/>
		</g>
	</g>
	<g>
		<g>
			<path class="st0" d="M47.7,15.6c46.6,24.7,63.3,80.4,57.4,130c-1.6,13.5-4.7,26.9-3.6,40.6c0.9,10.9,4.4,21.4,9.1,31.3
				c10.7,22.6,25.7,42.6,34.7,66.1c10.7,27.7,15.5,57.5,14.1,87.2c0,0.6,1,0.6,1,0c1.2-26.2-2.4-52.5-10.6-77.4
				c-4-12.1-9.1-23.9-15.2-35.2c-6-11-12.8-21.4-18.7-32.4c-5.9-10.9-11-22.5-12.9-34.9c-2.3-15.2,1.3-30.3,3-45.3
				c3-25.6,0.6-52.2-9.4-76.1c-9.7-23-26.3-43-48.5-54.8C47.7,14.4,47.2,15.3,47.7,15.6L47.7,15.6z"/>
		</g>
	</g>
	<g>
		<g>
			<path class="st0" d="M149.5,295.4c6.8,24.2,2.9,49.4-7.1,72.1c-4.6,10.4-10.4,20.1-16.7,29.6c-5.6,8.5-10.8,17.3-11.9,27.6
				c-0.1,0.6,0.9,0.6,1,0c1.3-12.4,8.8-22.5,15.4-32.7c6.2-9.7,11.6-19.9,15.8-30.7c8.2-21.2,10.7-44.2,4.5-66.3
				C150.3,294.5,149.4,294.8,149.5,295.4L149.5,295.4z"/>
		</g>
	</g>
	<g>
		<g>
			<path class="st0" d="M135.5,261.9c18.3,44.9,14.5,104-19.9,140.5c-0.4,0.5,0.3,1.2,0.7,0.7c34.6-36.8,38.5-96.2,20.1-141.5
				C136.3,261,135.3,261.3,135.5,261.9L135.5,261.9z"/>
		</g>
	</g>
	<g>
		<g>
			<path class="st0" d="M67.1,24.2c40.5,31.3,47.5,85.6,46.8,133.4c-0.2,13.1-1.5,26.2-0.8,39.3c0.6,10.8,3.9,20.7,9.3,30.1
				c5.6,9.7,12.9,18.4,19.4,27.5c6.6,9.2,12.3,19.1,16.8,29.4c10.9,24.6,15.7,52.5,8,78.8c-0.2,0.6,0.8,0.9,1,0.3
				c6.4-21.8,4.3-44.9-2.9-66.2c-3.7-11.1-8.8-21.8-14.8-31.8c-6-9.9-13.2-18.8-19.9-28.2c-7.7-10.9-14.1-22.6-15.5-36.1
				c-1.4-13.3,0.2-26.9,0.5-40.2c0.5-26-0.5-52.4-8.1-77.4c-7.1-23.2-19.7-44.7-39.1-59.7C67.1,22.9,66.6,23.8,67.1,24.2L67.1,24.2z
				"/>
		</g>
	</g>
	<g>
		<g>
			<path class="st0" d="M111.1,68c13.9,28.9,17.2,61.5,17.1,93.2c-0.1,28.4-6.2,59.6,7.9,85.8c0.3,0.6,1.2,0.1,0.9-0.5
				c-15.1-27.8-7.5-62-7.8-92.2c-0.4-29.6-4.2-59.9-17.2-86.8C111.7,66.9,110.8,67.4,111.1,68L111.1,68z"/>
		</g>
	</g>
	<g>
		<g>
			<path class="st0" d="M126,99.4c9.7,28,8.1,58.6,8,87.8c-0.1,27.5,0.9,54.7,15.5,78.8c0.3,0.5,1.2,0,0.9-0.5
				c-15.4-25.4-15.5-54.3-15.4-83.1c0.2-27.7,1.1-56.7-8.1-83.2C126.8,98.5,125.8,98.8,126,99.4L126,99.4z"/>
		</g>
	</g>
	<g>
		<g>
			<path class="st0" d="M133.1,112.5c26.3,54.5,1.4,117.5,26,172.5c0.3,0.6,1.1,0.1,0.9-0.5c-24.5-55,0.3-117.9-26-172.5
				C133.7,111.4,132.8,111.9,133.1,112.5L133.1,112.5z"/>
		</g>
	</g>
	<g>
		<g>
			<path class="st0" d="M144.1,129.5c19.8,28.4,20.1,66.1,20.2,99.3c0,18.7-0.1,37.4,2.9,55.9c3.2,19.7,14,39,10.7,59.4
				c-0.1,0.6,0.9,0.9,1,0.3c2.3-14.1-2.1-27.7-6.3-41.1c-5-16-6.5-32.7-7-49.3c-0.8-28.2,0.9-56.5-4.5-84.4
				c-2.8-14.4-7.6-28.6-16-40.7C144.6,128.5,143.7,129,144.1,129.5L144.1,129.5z"/>
		</g>
	</g>
	<g>
		<g>
			<path class="st0" d="M160.3,153.3c7.5,15.8,12.7,32.5,15.1,49.8c2.4,17.2,1.6,34.1-0.4,51.2c-1.7,14.5-3,28.6-0.6,43.1
				c2.2,13.2,6.2,26.7,6,40.2c0,0.6,1,0.6,1,0c0.2-13.1-3.6-26.2-5.8-39c-2.8-16.2-1-31.8,0.8-48c3.8-33.7-0.6-66.9-15.3-97.7
				C160.9,152.2,160,152.8,160.3,153.3L160.3,153.3z"/>
		</g>
	</g>
	<g>
		<g>
			<path class="st0" d="M171.1,169.5c13.6,19.3,19.9,43.2,20,66.7c0.1,11.6-1.3,23.3-4.6,34.4c-3.6,12.2-8.1,23.8-10,36.5
				c-0.1,0.6,0.9,0.9,1,0.3c2-13.2,6.8-25.2,10.4-37.9c3.2-11.3,4.5-23.1,4.2-34.8c-0.5-23.1-6.7-46.6-20.2-65.7
				C171.6,168.5,170.7,169,171.1,169.5L171.1,169.5z"/>
		</g>
	</g>
	<g>
		<g>
			<path class="st0" d="M187,196.4c3.7,8.9,7.5,18,8.3,27.7c0.9,10.4-0.4,21.3-1.8,31.6c-3.1,22.1-17.2,42.1-14.7,65.1
				c0.1,0.6,1.1,0.6,1,0c-1.4-12.4,2.3-24.8,6.4-36.4c3.7-10.7,7.3-20.7,8.8-32c1.2-9.5,2.2-19.6,1.2-29.2
				c-0.9-9.4-4.7-18.2-8.3-26.8C187.8,195.5,186.8,195.8,187,196.4L187,196.4z"/>
		</g>
	</g>
</g>
</svg>
