<?xml version="1.0" encoding="utf-8"?>
<!-- Generator: Adobe Illustrator 19.1.0, SVG Export Plug-In . SVG Version: 6.00 Build 0)  -->
<svg version="1.1" id="Layer_1" xmlns="http://www.w3.org/2000/svg" xmlns:xlink="http://www.w3.org/1999/xlink" x="0px" y="0px"
	 viewBox="0 0 168.5 178.6" style="enable-background:new 0 0 168.5 178.6;" xml:space="preserve">
<style type="text/css">
	path{stroke-width:5;}
	.Drop_x0020_Shadow{fill:none;}
	.Round_x0020_Corners_x0020_2_x0020_pt{fill:#FFFFFF;stroke:#231F20;stroke-miterlimit:10;}
	.Live_x0020_Reflect_x0020_X{fill:none;}
	.Bevel_x0020_Soft{fill:url(#SVGID_1_);}
	.Dusk{fill:#FFFFFF;}
	.Foliage_GS{fill:#FFDD00;}
	.Pompadour_GS{fill-rule:evenodd;clip-rule:evenodd;fill:#44ADE2;}
	.st0{fill:none;stroke:#3B5998;stroke-miterlimit:10;}
	.st1{fill:none;stroke:#E4178A;stroke-miterlimit:10;}
	.st2{fill:none;stroke:#FFC54D;stroke-miterlimit:10;}
	.st3{fill:none;stroke:#FD6E21;stroke-miterlimit:10;}
	.st4{fill:none;stroke:#5D267D;stroke-miterlimit:10;}
	.st5{fill:none;stroke:#0077B5;stroke-miterlimit:10;}
</style>
<linearGradient id="SVGID_1_" gradientUnits="userSpaceOnUse" x1="-705.8412" y1="-13.5903" x2="-705.1342" y2="-12.8832">
	<stop  offset="0" style="stop-color:#DEDFE3"/>
	<stop  offset="0.1783" style="stop-color:#DADBDF"/>
	<stop  offset="0.3611" style="stop-color:#CECFD3"/>
	<stop  offset="0.546" style="stop-color:#B9BCBF"/>
	<stop  offset="0.7324" style="stop-color:#9CA0A2"/>
	<stop  offset="0.9181" style="stop-color:#787D7E"/>
	<stop  offset="1" style="stop-color:#656B6C"/>
</linearGradient>
<path class="st5" d="M6.7,62.2c-1.1,36.6-2.1,73.6,5.1,109.4c0.3,1.4,0.7,3,1.9,3.9c1,0.7,2.4,0.7,3.6,0.6c7.5-0.3,15-0.6,22.5-0.9
	c-5.4-13.7-5.9-28.9-6-43.6c-0.3-23.9,0-47.8,0.9-71.7c-9.4,0-18.8,0.1-28.2,0.1"/>
<path class="st5" d="M21.3,3.2c-4.5-2-10,0-13.5,3.5C2.7,11.8,1,20,3.8,26.6s9.7,11.3,16.9,11.1c7.2-0.1,14-5.1,16.4-11.8
	c1.4-3.9,1.2-8.5-1.4-11.7c-1.6-1.9-3.8-3.1-6-4.2c-3.7-1.8-7.4-3.6-11.1-5.3"/>
<path class="st5" d="M55.8,50.1c-2.2,41.5-2.2,83,0,124.5c8.8,0.3,17.6,0.6,26.4,0.9c1,0,2.2,0,2.7-0.8c0.3-0.5,0.4-1.1,0.4-1.7
	c0-11.5,0-23-0.1-34.5c0-11.8,0.1-24.1,5.8-34.4c5.7-10.3,19.1-17.3,29.6-12c8.3,4.2,11.8,14.1,13.6,23.2c3.1,15.1,4,30.7,2.7,46
	c-0.2,2.6-0.3,5.7,1.8,7.3c1,0.7,2.2,0.9,3.3,1.1c8,1.3,15.9,2.6,23.9,3.9c-0.6-21.2-1.1-42.6-4.7-63.5
	c-2.5-14.5-6.7-29.3-16.1-40.6S120,51.1,105.9,55.4c-10.1,3.1-17.7,11.3-24.8,19.1c-1.1-7.4-2.2-14.7-3.3-22.1
	c-0.2-1-0.3-2.1-1.1-2.9c-0.9-0.9-2.4-1-3.7-1c-6.8,0.1-13.6,0.2-20.5,0.3"/>
</svg>
