<?xml version="1.0" encoding="utf-8"?>
<!-- Generator: Adobe Illustrator 19.1.0, SVG Export Plug-In . SVG Version: 6.00 Build 0)  -->
<svg version="1.1" id="Layer_3" xmlns="http://www.w3.org/2000/svg" xmlns:xlink="http://www.w3.org/1999/xlink" x="0px" y="0px"
	 viewBox="0 0 239.2 493.3" style="enable-background:new 0 0 239.2 493.3;" xml:space="preserve">
<style type="text/css">
	.st0{fill:#EFA28E;}
	.st1{fill:#99950B;}
	.st2{fill:#C6BD26;}
</style>
<g id="nose-mouth">
	<g>
		<g>
			<path class="st0" d="M235.2,252.7c-2-1.2-4.5-2-6.7-2.8c-2-0.7-5.3-2-7.4-1.2c-1.8,0.7-1.4,2.8-0.3,4c2.5,2.6,6.4-1.9,9.3-1
				c0.9,0.3,1.3-1.2,0.4-1.4c-2.3-0.7-4.1,0.4-6.2,1.2c-0.9,0.4-2.5,1-2.9-0.5c-0.1-0.5-0.3-0.6,0.1-0.9c0.5-0.4,2.1,0,2.5,0.1
				c3.4,0.6,7.4,1.9,10.3,3.7C235.3,254.5,236.1,253.2,235.2,252.7L235.2,252.7z"/>
		</g>
	</g>
	<g>
		<g>
			<path class="st0" d="M211.9,234.1c-4.2,8.4-0.5,17.1,6.6,22.5c0.8,0.6,1.5-0.7,0.8-1.3c-6.4-4.9-9.9-12.8-6.1-20.5
				C213.6,234,212.4,233.3,211.9,234.1L211.9,234.1z"/>
		</g>
	</g>
	<g>
		<g>
			<path class="st0" d="M239.6,288.2c-3-6.8-8.3-2.8-14.2-1.5c-7.8,1.7-16.3,0.9-24.2,0c-0.6-0.1-0.9,0.7-0.6,1.1
				c7.5,12.8,24.2,21.7,38.7,22.7c1,0.1,1-1.4,0-1.5c-13.9-0.9-30.2-9.6-37.4-22c-0.2,0.4-0.4,0.8-0.6,1.1c5.4,0.6,11.4,1.3,16.9,1
				c2.9-0.1,5.7-0.6,8.5-1.2c4-1,9.4-4.2,11.7,1C238.7,289.9,239.9,289.1,239.6,288.2L239.6,288.2z"/>
		</g>
	</g>
	<g>
		<g>
			<path class="st0" d="M239.4,295c-5.6-2.1-11-1.5-16.8-2.1c-7.7-0.8-16-2.1-22.2-7c-0.7-0.6-1.8,0.5-1.1,1.1
				c5.4,4.2,12,5.9,18.7,6.9c7,1,14.3,0.1,21,2.6C239.9,296.8,240.3,295.3,239.4,295L239.4,295z"/>
		</g>
	</g>
</g>
<g id="eye">
	<g>
		<g>
			<path class="st0" d="M217.7,193.1c-3.7-11.4-10.2-21.6-22.4-25c-6.5-1.8-12.5-0.3-18.8,1.4c-8.5,2.4-17.8,4.6-26.6,2.3
				c-0.9-0.2-1.3,1.2-0.4,1.4c12.9,3.4,24.4-3.2,36.9-4.4c15.6-1.6,25.5,11.4,29.8,24.7C216.6,194.4,218,194,217.7,193.1
				L217.7,193.1z"/>
		</g>
	</g>
	<g>
		<g>
			<path class="st1" d="M186.5,171.8c-3.5,0.8-6.5,3.2-9.3,5.3c-0.5,0.4,0,1.3,0.5,0.9c2.7-2.1,5.7-4.4,9-5.2
				C187.4,172.6,187.2,171.7,186.5,171.8L186.5,171.8z"/>
		</g>
	</g>
	<g>
		<g>
			<path class="st1" d="M180.5,171.8c-3.7,2.1-7.3,4.5-10.7,7.2c-0.5,0.4,0,1.3,0.5,0.9c3.4-2.6,7-5.1,10.7-7.2
				C181.6,172.4,181.1,171.5,180.5,171.8L180.5,171.8z"/>
		</g>
	</g>
	<g>
		<g>
			<path class="st1" d="M175.8,172.2c-4.6,2.5-8.7,5.8-13.2,8.4c-0.6,0.3-0.1,1.2,0.5,0.9c4.6-2.6,8.7-5.9,13.2-8.4
				C176.9,172.8,176.4,171.9,175.8,172.2L175.8,172.2z"/>
		</g>
	</g>
	<g>
		<g>
			<path class="st1" d="M171,173c-4.8,2.4-8.8,6.1-13.9,8.1c-0.6,0.2-0.3,1.2,0.3,1c5.2-2.1,9.3-5.7,14.2-8.2
				C172.1,173.6,171.6,172.7,171,173L171,173z"/>
		</g>
	</g>
	<g>
		<g>
			<path class="st1" d="M198,191.8c-13.8,1.5-28.2-2.4-39.9-9.9c-0.6-0.4-1.4,0.4-1,1c5.3,8.8,15.3,11.1,25,12.1
				c11.4,1.2,23.7-5.1,34.7-0.7c0.6,0.2,1.2-0.6,0.8-1.1c-7.1-11-15.1-19.5-28.7-21.4c-6.9-0.9-14.5-0.4-21.1,2
				c-7.7,2.8-17.5,7.9-24.9,2c-0.7-0.6-1.8,0.4-1.1,1.1c14,14,36.6-1.8,52.5-2.2c1,0,1-1.5,0-1.5c-15.4,0.4-38.1,16-51.5,2.7
				c-0.4,0.4-0.7,0.7-1.1,1.1c4.8,3.8,10.4,3.6,16.1,2.1c7.3-2,13.5-5.3,21.3-5.9c9.2-0.7,19.8,1.2,26.7,7.7
				c4.1,3.8,7.3,8.6,10.3,13.2c0.3-0.4,0.6-0.7,0.8-1.1c-8.9-3.5-18.5-0.1-27.5,0.8c-10.8,1-25.5-1.6-31.4-11.5
				c-0.3,0.3-0.7,0.7-1,1c11.9,7.7,26.6,11.6,40.6,10.1C199,193.1,199,191.6,198,191.8L198,191.8z"/>
		</g>
	</g>
	<g>
		<g>
			<path class="st1" d="M195.3,174.5c3.2,1.5,5.3,6.2,5,9.7c-0.3,4.1-2.4,6.8-6.2,8c-0.6,0.2-0.3,1.2,0.3,1c4.2-1.4,6.5-4.2,6.9-8.9
				c0.3-3.9-2-9-5.6-10.7C195.2,173.4,194.7,174.2,195.3,174.5L195.3,174.5z"/>
		</g>
	</g>
	<g>
		<g>
			<path class="st1" d="M180.6,191.1c-4.4-3.5-5.1-8.9-2.3-13.6c0.3-0.6-0.5-1.1-0.9-0.5c-2.9,5.1-2.2,11.1,2.5,14.9
				C180.4,192.3,181.1,191.5,180.6,191.1L180.6,191.1z"/>
		</g>
	</g>
	<g>
		<g>
			<path d="M196.3,183.3c-0.3,7.3-9.9,9.5-13.4,3.1c-3.4-6.3,2.4-11.6,8.7-10.4c0-0.3-0.1-0.6-0.1-0.9c-2.8,1.7-4.7,4.9-2.7,8
				c1.6,2.5,5.1,3.2,7.4,1.5c0.5-0.4,0-1.3-0.5-0.9c-1.8,1.3-4.6,1-5.9-0.9c-1.8-2.6-0.3-5.3,2.2-6.8c0.3-0.2,0.3-0.8-0.1-0.9
				c-3.5-0.7-7.4,0-9.5,3.1c-2,2.8-1.7,6.7,0.1,9.5c4.4,6.6,14.5,3.6,14.8-4.3C197.3,182.7,196.3,182.7,196.3,183.3L196.3,183.3z"/>
		</g>
	</g>
	<g>
		<g>
			<path d="M193,185.5c-1.3,1.9-3.1,3.4-4.9,4.8c-0.5,0.4,0,1.2,0.5,0.9c2-1.5,3.9-3.1,5.3-5.2C194.2,185.4,193.3,184.9,193,185.5
				L193,185.5z"/>
		</g>
	</g>
	<g>
		<g>
			<path d="M190.8,184.2c-1.9,1.6-3.7,3.4-5.3,5.2c-0.4,0.5,0.3,1.2,0.7,0.7c1.6-1.9,3.4-3.6,5.3-5.2
				C192,184.5,191.3,183.8,190.8,184.2L190.8,184.2z"/>
		</g>
	</g>
	<g>
		<g>
			<path d="M188.3,182.2c-2.5,1-4.4,2.5-6,4.6c-0.4,0.5,0.5,1,0.9,0.5c1.4-1.9,3.2-3.3,5.4-4.1C189.1,183,188.9,182,188.3,182.2
				L188.3,182.2z"/>
		</g>
	</g>
	<g>
		<g>
			<path d="M187.6,180.3c-2.7,0.1-4.6,1.1-6.5,2.8c-0.5,0.4,0.2,1.1,0.7,0.7c1.8-1.6,3.4-2.4,5.8-2.5
				C188.2,181.3,188.2,180.3,187.6,180.3L187.6,180.3z"/>
		</g>
	</g>
	<g>
		<g>
			<path d="M188.4,177.9c-1.7-0.4-3.7-0.1-5.3,0.4c-0.6,0.2-0.3,1.2,0.3,1c1.5-0.5,3.2-0.8,4.8-0.4C188.7,179,189,178,188.4,177.9
				L188.4,177.9z"/>
		</g>
	</g>
</g>
<g id="eyebrow">
	<g>
		<g>
			<path class="st2" d="M198.5,136.4c-17.7,0.3-35.8,8.2-50.6,17.5c-0.8,0.5-0.1,1.8,0.8,1.3c14.5-9.1,32.4-17,49.8-17.3
				C199.4,137.9,199.4,136.4,198.5,136.4L198.5,136.4z"/>
		</g>
	</g>
	<g>
		<g>
			<path class="st2" d="M218.9,150.2c-4-5.1-9-9-14.5-12.4c-0.5-0.3-1.1,0.5-0.5,0.9c5.4,3.4,10.3,7.2,14.3,12.3
				C218.6,151.5,219.3,150.7,218.9,150.2L218.9,150.2z"/>
		</g>
	</g>
	<g>
		<g>
			<path class="st2" d="M194.9,138c6.9,3.6,13.7,7.6,19.7,12.7c0.5,0.4,1.2-0.3,0.7-0.7c-6-5.1-12.9-9.2-19.9-12.9
				C194.8,136.9,194.3,137.7,194.9,138L194.9,138z"/>
		</g>
	</g>
	<g>
		<g>
			<path class="st2" d="M211.2,149.6c-6.3-6.2-13.8-9.8-22.3-12.1c-0.6-0.2-0.9,0.8-0.3,1c8.3,2.2,15.7,5.8,21.8,11.9
				C210.9,150.7,211.6,150,211.2,149.6L211.2,149.6z"/>
		</g>
	</g>
	<g>
		<g>
			<path class="st2" d="M207.8,149.2c-7.3-5.7-16-8.8-25-10.8c-0.6-0.1-0.9,0.8-0.3,1c8.8,2,17.3,4.9,24.5,10.5
				C207.6,150.3,208.3,149.6,207.8,149.2L207.8,149.2z"/>
		</g>
	</g>
	<g>
		<g>
			<path class="st2" d="M202.5,149.1c-7.6-4.6-16-7.2-24.6-9.4c-0.6-0.2-0.9,0.8-0.3,1c8.5,2.1,16.8,4.7,24.4,9.3
				C202.6,150.3,203.1,149.4,202.5,149.1L202.5,149.1z"/>
		</g>
	</g>
	<g>
		<g>
			<path class="st2" d="M195,148.5c-7.3-3.9-15.4-5.4-23.5-6.2c-0.6-0.1-0.6,0.9,0,1c8,0.9,15.8,2.3,23,6.1
				C195.1,149.7,195.6,148.8,195,148.5L195,148.5z"/>
		</g>
	</g>
	<g>
		<g>
			<path class="st2" d="M188.6,148.1c-7.5-2.9-15.6-3.6-23.6-3.1c-0.6,0-0.6,1,0,1c7.9-0.5,15.9,0.2,23.3,3.1
				C188.9,149.3,189.2,148.3,188.6,148.1L188.6,148.1z"/>
		</g>
	</g>
	<g>
		<g>
			<path class="st2" d="M175.6,148c-5.7-0.9-12.2-1-17.8,0.5c-0.6,0.2-0.4,1.1,0.3,1c5.3-1.5,11.8-1.3,17.2-0.5
				C176,149.1,176.3,148.1,175.6,148L175.6,148z"/>
		</g>
	</g>
	<g>
		<g>
			<path class="st2" d="M189,135.4c-2.4,0.6-5,1.5-6.9,3.1c-0.5,0.4,0.2,1.1,0.7,0.7c1.8-1.5,4.2-2.3,6.5-2.9
				C189.9,136.3,189.6,135.3,189,135.4L189,135.4z"/>
		</g>
	</g>
	<g>
		<g>
			<path class="st2" d="M183.9,134.8c-3.2,0.8-5.9,3.2-8.2,5.5c-0.5,0.5,0.2,1.2,0.7,0.7c2.1-2.1,4.7-4.5,7.7-5.2
				C184.8,135.6,184.5,134.6,183.9,134.8L183.9,134.8z"/>
		</g>
	</g>
	<g>
		<g>
			<path class="st2" d="M177.3,135.3c-4,2-7.5,5.4-10.4,8.8c-0.4,0.5,0.3,1.2,0.7,0.7c2.8-3.4,6.2-6.7,10.1-8.7
				C178.3,135.9,177.8,135,177.3,135.3L177.3,135.3z"/>
		</g>
	</g>
	<g>
		<g>
			<path class="st2" d="M169.6,137.4c-4.1,2.6-8,6.2-10.8,10.1c-0.4,0.5,0.5,1,0.9,0.5c2.7-3.8,6.5-7.3,10.4-9.8
				C170.6,137.9,170.1,137,169.6,137.4L169.6,137.4z"/>
		</g>
	</g>
	<g>
		<g>
			<path class="st2" d="M220.2,150.2c-2.2-3.3-4.1-7.9-7.1-10.6c-1.9-1.7-5.1-1.6-7.6-2c-5.4-0.9-10.8-1.8-16.3-2.6
				c-8.6-1.2-16.1-0.3-23.6,4.2c-7.5,4.5-13.8,10.6-19.9,16.7c-0.6,0.6,0.2,1.6,0.9,1.2c22.7-12,48.1-7.1,72.5-5.8
				c1,0.1,1-1.4,0-1.5c-10.1-0.5-20.3-1.1-30.4-1.9c-15-1.1-29.5,0.8-42.9,7.9c0.3,0.4,0.6,0.8,0.9,1.2c5.5-5.5,11.1-11,17.6-15.2
				c8.5-5.6,16.6-6.5,26.5-5c4.4,0.7,8.9,1.4,13.3,2.1c3,0.5,6.4,0.3,8.5,2.6c2.5,2.7,4.2,6.4,6.2,9.4
				C219.4,151.8,220.7,151,220.2,150.2L220.2,150.2z"/>
		</g>
	</g>
</g>
<g id="hair-bottom">
	<g>
		<g>
			<path class="st2" d="M175.7,322.8c8.1,21.7,3.4,45.3,6.8,67.7c3.8,24.8,13.3,50.9,29.7,70.3c0.4-0.4,0.7-0.7,1.1-1.1
				c-23.1-24.1-36.9-55.9-38.7-89.2c-0.1-1-1.5-1-1.5,0c-0.5,11.3-1,22.6,0.4,33.8c1.2,9.4,4.1,18.3,7.9,27c4,9.1,8.8,17.9,13,26.9
				c5.1,10.6,11.1,22.7,8.7,34.8c-0.2,0.9,1.3,1.3,1.4,0.4c2-9.7-1.3-18.4-4.9-27.3c-4-9.5-8.9-18.6-13.4-27.8
				c-4.7-9.7-8.9-19.8-10.7-30.5c-2.1-12.3-1.5-24.9-1-37.3c-0.5,0-1,0-1.5,0c1.8,33.7,15.7,65.9,39.1,90.3c0.7,0.7,1.7-0.3,1.1-1.1
				c-17.3-20.5-26.8-48.4-30-74.7c-2.5-20.9,1.5-42.4-6.1-62.6C176.8,321.5,175.3,321.9,175.7,322.8L175.7,322.8z"/>
		</g>
	</g>
	<g>
		<g>
			<path class="st2" d="M31.3,258.3c-7.2,13.3-12.1,27.8-14.1,42.8c-2.2,15.7,0.3,30.8,0.7,46.4c0.4,16.8-5.9,31.5-11.6,46.9
				c-4.9,13-9,27.4-6,41.4c3.3,15.3,15.7,24.7,28.1,32.8c0.3-0.4,0.5-0.9,0.8-1.3c-16.4-9.9-29.6-28.8-24.7-48.6
				c-0.5-0.1-1-0.1-1.5-0.2c-1.3,17.8,18.4,31.8,31.7,40.1c8.9,5.6,18.1,10.5,26.7,16.5c7.2,5,11.6,10.8,15.7,18.5
				c0.5,0.9,1.8,0.1,1.3-0.8c-3.2-6-6.6-11.6-11.9-15.9c-6.9-5.5-14.6-10-22.3-14.4c-9.1-5.3-17.6-10.9-25.4-17.9
				c-7.6-6.8-15.2-15.3-14.4-26.1c0.1-0.8-1.3-1-1.5-0.2c-5,20.5,8.4,40.1,25.4,50.3c0.8,0.5,1.6-0.8,0.8-1.3
				c-7.9-5.2-16.1-10.7-21.6-18.6C2.1,441,0.3,431.6,1,422.3c1.2-18.8,11.1-35.3,15.9-53.2c4.8-18.2,0.2-36.1,0.7-54.5
				c0.5-19.4,5.8-38.4,15.1-55.5C33.1,258.2,31.8,257.5,31.3,258.3L31.3,258.3z"/>
		</g>
	</g>
	<g>
		<g>
			<path class="st2" d="M149.9,287.8c2.7,18.1,4.3,36.2,6.7,54.3c2.5,18.4,8.2,36.4,16.1,53.2c0.4,0.9,1.7,0.1,1.3-0.8
				c-8.3-17.7-14.1-36.7-16.3-56.1c-1.9-17.1-3.8-34.1-6.3-51C151.2,286.4,149.8,286.8,149.9,287.8L149.9,287.8z"/>
		</g>
	</g>
	<g>
		<g>
			<path class="st2" d="M146.6,281.5c3.8,25.1,1.8,50.7,6.2,75.7c4.1,23.2,12.7,45.5,24.9,65.6c0.5,0.8,1.8,0.1,1.3-0.8
				c-12.5-20.5-21.1-43.3-25-67c-4.1-24.5-2.2-49.5-5.9-74C147.9,280.1,146.5,280.5,146.6,281.5L146.6,281.5z"/>
		</g>
	</g>
	<g>
		<g>
			<path class="st2" d="M157.2,299.5c4.9,22.2,21.7,40.4,23.5,63.5c0.1,1,1.6,1,1.5,0c-1.8-23.2-18.6-41.5-23.5-63.9
				C158.4,298.1,157,298.5,157.2,299.5L157.2,299.5z"/>
		</g>
	</g>
	<g>
		<g>
			<path class="st2" d="M142.2,271.1c5.9,39.5-1.2,79.8,7.6,119.1c7,31.4,21.9,69,51.6,85.3c0.8,0.5,1.6-0.8,0.8-1.3
				c-14.9-8.2-25.5-21.9-33.3-36.7c-8.9-16.6-15.1-34.6-18.7-53.1c-7.3-37.6-0.8-76-6.5-113.8C143.6,269.8,142.1,270.2,142.2,271.1
				L142.2,271.1z"/>
		</g>
	</g>
	<g>
		<g>
			<path class="st2" d="M130.5,268.6c12.9,33.1,10.9,68.8,12.5,103.6c1.3,29.8,6,60.6,21.5,86.7c7.9,13.3,18.3,24.6,29.8,34.9
				c0.7,0.6,1.8-0.4,1.1-1.1c-21.2-18.8-36.1-41.1-43.6-68.6c-9.1-33.3-6.7-67.7-8.9-101.8c-1.2-18.5-4.1-36.7-10.8-54
				C131.6,267.4,130.2,267.7,130.5,268.6L130.5,268.6z"/>
		</g>
	</g>
	<g>
		<g>
			<path class="st2" d="M129.2,277.5c6.1,26.8,6.9,54.7,1.3,81.6c-0.2,0.9,1.3,1.3,1.4,0.4c5.6-27.2,4.8-55.4-1.3-82.4
				C130.4,276.1,129,276.5,129.2,277.5L129.2,277.5z"/>
		</g>
	</g>
	<g>
		<g>
			<path class="st2" d="M106.7,405.6c-5,14.1-9,28.6-10.3,43.6c-1.3,14.9,0.3,29.8,3.7,44.3c0.2,0.9,1.7,0.5,1.4-0.4
				c-3.4-14.4-5-29.1-3.7-43.9c1.3-14.8,5.3-29.2,10.3-43.2C108.5,405.1,107.1,404.7,106.7,405.6L106.7,405.6z"/>
		</g>
	</g>
	<g>
		<g>
			<path class="st2" d="M104.1,414.1c-5.6,27.2-3.4,54.7,9.4,79.6c0.4,0.9,1.7,0.1,1.3-0.8c-12.6-24.6-14.8-51.6-9.3-78.4
				C105.8,413.5,104.3,413.1,104.1,414.1L104.1,414.1z"/>
		</g>
	</g>
	<g>
		<g>
			<path class="st2" d="M110.1,411.3c-0.6,15.6-0.8,31.5,3.8,46.5c3.8,12.4,10.2,24.3,16,35.9c0.4,0.9,1.7,0.1,1.3-0.8
				c-5.7-11.4-12.1-23.3-15.9-35.5c-4.6-14.9-4.4-30.7-3.8-46.1C111.7,410.3,110.2,410.3,110.1,411.3L110.1,411.3z"/>
		</g>
	</g>
	<g>
		<g>
			<path class="st2" d="M113.5,415.9c-3.8,30,16.1,57.2,35.7,77.9c0.7,0.7,1.7-0.4,1.1-1.1c-19.3-20.4-39-47.2-35.2-76.8
				C115.1,415,113.6,415,113.5,415.9L113.5,415.9z"/>
		</g>
	</g>
	<g>
		<g>
			<path class="st2" d="M84.9,380.9c-3.9,17.8-8,36.5-4.4,54.7c2.5,12.7,9,23.5,15.7,34.3c0.5,0.8,1.8,0.1,1.3-0.8
				c-6.4-10.4-12.7-20.6-15.3-32.7c-3.9-18.3,0.2-37.3,4.2-55.2C86.6,380.4,85.1,380,84.9,380.9L84.9,380.9z"/>
		</g>
	</g>
	<g>
		<g>
			<path class="st2" d="M82.1,376.4c-8,19.4-10.1,40-4,60.3c4.6,15.2,13.2,28.5,19.5,42.9c0.4,0.9,1.7,0.1,1.3-0.8
				c-6-14-14.3-26.8-18.9-41.4c-6.4-20.4-4.4-41.1,3.6-60.7C83.9,375.9,82.4,375.5,82.1,376.4L82.1,376.4z"/>
		</g>
	</g>
	<g>
		<g>
			<path class="st2" d="M73.4,366.7c-3.1,12.5-6.3,25.2-6.9,38.2c-0.6,12.1,1.8,24.3,5.7,35.8C78.3,459,88.5,475,99.2,491
				c0.5,0.8,1.8,0,1.3-0.8c-10.3-15.4-20.2-30.9-26.4-48.5c-4.1-11.5-6.7-23.8-6.1-36c0.5-13.1,3.7-26,6.9-38.6
				C75.1,366.2,73.6,365.8,73.4,366.7L73.4,366.7z"/>
		</g>
	</g>
	<g>
		<g>
			<path class="st2" d="M56.3,337.1c5.3,20.5,1.4,42.3,1.2,63.2c-0.1,6.2-0.3,12.4,0.8,18.5c1.3,6.8,4.5,13.1,7.8,19.1
				c0.5,0.8,1.8,0.1,1.3-0.8c-3.4-6.2-6.6-12.7-7.8-19.8c-1.2-7.2-0.6-14.7-0.6-21.9c0.2-19.6,3.7-39.4-1.3-58.8
				C57.5,335.8,56.1,336.2,56.3,337.1L56.3,337.1z"/>
		</g>
	</g>
	<g>
		<g>
			<path class="st2" d="M52.6,327.6c0.1,6,0,11.9-1.4,17.8c-0.2,0.9,1.2,1.3,1.4,0.4c1.4-6,1.5-12.1,1.4-18.2
				C54.1,326.6,52.6,326.6,52.6,327.6L52.6,327.6z"/>
		</g>
	</g>
	<g>
		<g>
			<path class="st2" d="M50.3,347.5c-6,23.4-3,48.3,4.3,71c0.3,0.9,1.7,0.5,1.4-0.4c-7.2-22.5-10.3-47.1-4.3-70.2
				C52,346.9,50.6,346.5,50.3,347.5L50.3,347.5z"/>
		</g>
	</g>
	<g>
		<g>
			<path class="st2" d="M40.8,324.5c-8.2,28.2,0.2,56.8,8.5,83.9c0.3,0.9,1.7,0.5,1.4-0.4c-8.3-26.8-16.6-55.2-8.5-83.1
				C42.5,324,41.1,323.6,40.8,324.5L40.8,324.5z"/>
		</g>
	</g>
	<g>
		<g>
			<path class="st2" d="M36.6,311.1c-8.7,33.6-2.8,68,13.1,98.5c8,15.3,17.6,29.7,25.5,45c6.5,12.5,9.7,25.1,12.1,38.9
				c0.2,0.9,1.6,0.5,1.4-0.4c-2.1-12.1-4.7-23.7-10-34.8c-7.2-14.9-16.3-28.8-24.4-43.2c-17.8-32-25.8-67.6-16.4-103.7
				C38.3,310.5,36.9,310.1,36.6,311.1L36.6,311.1z"/>
		</g>
	</g>
	<g>
		<g>
			<path class="st2" d="M33.2,296.6c-0.2,17.7-5,35-5.3,52.7c-0.3,16,3.5,31.7,9,46.6c11.3,30.3,29.2,58,35.7,89.9
				c0.2,0.9,1.6,0.5,1.4-0.4C67.6,454,50.2,426.7,38.9,397c-5.8-15.2-9.8-31.3-9.5-47.7c0.3-17.7,5.2-35,5.3-52.7
				C34.8,295.6,33.3,295.6,33.2,296.6L33.2,296.6z"/>
		</g>
	</g>
	<g>
		<g>
			<path class="st2" d="M32,281.2c-7.2,13.3-8.9,28-8.8,42.9c0.1,16.7,0.5,33.5,2.2,50.1C26.9,390,30.5,405,36,419.9
				c5.6,15,11.3,29.8,12,46c0,1,1.5,1,1.5,0c-0.6-14.6-5.2-28.2-10.3-41.8c-5.6-15.1-10-30-11.9-46c-1.9-16.2-2.2-32.5-2.5-48.8
				c-0.3-16.4,0.6-32.6,8.5-47.3C33.8,281.1,32.5,280.4,32,281.2L32,281.2z"/>
		</g>
	</g>
	<g>
		<g>
			<path class="st2" d="M17,360.7c-2.2,19.3,1.9,38.2,9.4,56c6.8,16.2,18.7,29.7,19.6,47.9c0,1,1.5,1,1.5,0
				C46.8,447.7,37,435,29.8,420.4c-9-18.4-13.7-39.3-11.3-59.8C18.7,359.7,17.2,359.7,17,360.7L17,360.7z"/>
		</g>
	</g>
	<g>
		<g>
			<path class="st2" d="M14.5,372.2c-3.2,14.7-1.1,30.5,3,44.9c4.6,16,14,29.7,22,44.1c0.5,0.8,1.8,0.1,1.3-0.8
				c-7.7-13.8-16.8-27-21.4-42.3c-4.4-14.5-6.6-30.6-3.4-45.5C16.2,371.7,14.7,371.3,14.5,372.2L14.5,372.2z"/>
		</g>
	</g>
	<g>
		<g>
			<path class="st2" d="M7.6,391.9c0,24.5,11,47.4,26.4,66c0.6,0.7,1.7-0.3,1.1-1.1c-15.2-18.3-26-40.8-26-64.9
				C9.1,390.9,7.6,390.9,7.6,391.9L7.6,391.9z"/>
		</g>
	</g>
	<g>
		<g>
			<path class="st0" d="M135.6,250.1c6.6,26.4,20.1,50.8,38.6,70.7c9.1,9.9,19.5,18.6,30.8,25.8c9.9,6.3,21.9,13.9,34,14
				c1,0,1-1.5,0-1.5c-12.2-0.2-24.5-8.2-34.5-14.7c-11.2-7.3-21.3-16-30.3-25.9c-17.8-19.5-30.7-43.3-37.1-68.9
				C136.8,248.8,135.3,249.2,135.6,250.1L135.6,250.1z"/>
		</g>
	</g>
	<g>
		<g>
			<path class="st0" d="M185.7,332.5c3,13,0.5,26.1-4.3,38.3c-0.4,0.9,1.1,1.3,1.4,0.4c4.9-12.5,7.5-25.8,4.3-39.1
				C186.9,331.1,185.5,331.5,185.7,332.5L185.7,332.5z"/>
		</g>
	</g>
</g>
<g id="hair-top">
	<g>
		<g>
			<path class="st2" d="M164.7,119.3c7.3-21.7,21.1-42.4,39.8-55.9c2.7-2,32.6-22.8,33.8-20.8c0.4,0.7,1.7,0.2,1.4-0.6
				c-4-10.4-13.5-16.8-24.6-17.1c-13-0.3-24.4,7.7-32.1,17.5c-19.6,25.3-19.6,60.5-20.4,91c-0.5,18-1,36.1-5.3,53.7
				c-4.1,17-11.6,33-17.8,49.3c-12.7,33.7-14.7,68.9-11.3,104.5c4,41,18.2,83.8,7.1,124.8c0.5,0.1,1,0.1,1.5,0.2
				c1.9-30.2-3.4-59-14-87.2c-0.3-0.7-1.5-0.7-1.5,0.2c1.7,23.6,3.1,47.2,3.5,70.9c0.5,0,1,0,1.5,0c-2.3-34.2-30.3-57.1-50.3-82.1
				c-11.5-14.4-19.5-30.4-24.1-48.3c-4.5-17.7-6.2-36-7.7-54.2c-0.1-1-1.4-1-1.5,0c-3.3,33,1.7,66.3,14.5,96.9
				c0.5-0.2,0.9-0.4,1.4-0.6c-15.2-28.8-26.5-60.7-26.1-93.6c0.3-29.3,11.1-56.6,25.6-81.6c14-24.2,31-46.5,45.7-70.2
				c7.3-11.8,13.8-24,19.5-36.6c6-13.1,11.8-26.8,21.8-37.5c11.9-12.7,29-18.6,44.6-25.4c15.9-6.8,33.1-8.8,48.7-0.4
				c0.6,0.3,1.2-0.2,1.1-0.8c-1.5-7.2-5.4-12.1-12.7-13.9c-6.4-1.6-12.8-1.9-19.2-0.5c-8.2,1.8-16.1,5.1-23.4,9.3
				c-6.1,3.5-12.6,7.8-16.3,14c-0.5,0.8,0.8,1.6,1.3,0.8c6.8-11.4,23.2-18.3,35.3-21.7c6.1-1.7,11.7-2,17.9-1.1
				c8.5,1.3,13.8,4.8,15.6,13.6c0.4-0.3,0.7-0.6,1.1-0.8c-11.4-6.2-23.9-7.4-36.7-4.4c-7.2,1.7-13.8,4.9-20.5,7.9
				c-7.5,3.3-15.1,6.2-22.3,10.3c-26.9,15.5-34.3,46.2-48.5,71.7C83.5,151,38,195.9,31.8,255.8C28,293,40.3,329.9,57.5,362.5
				c0.4,0.7,1.7,0.2,1.4-0.6c-12.7-30.5-17.7-63.6-14.4-96.5c-0.5,0-1,0-1.5,0c2.9,33.7,6.6,68.2,26.9,96.4
				c20,27.8,52.7,51.1,55.2,88.1c0.1,1,1.5,1,1.5,0c-0.4-23.7-1.9-47.3-3.5-70.9c-0.5,0.1-1,0.1-1.5,0.2
				c10.5,28.1,15.8,56.8,13.9,86.8c-0.1,0.9,1.3,1,1.5,0.2c8.8-32.5,1.2-65.9-3.7-98.4c-5.2-34.5-8.1-70.3-0.3-104.7
				c7.1-31.4,24.5-59.2,28.8-91.4c4.3-32.4-0.1-65.8,8.3-97.7c4.3-16.1,12.1-33.2,26.9-42.3c14.4-8.8,34.7-6.4,41.3,10.7
				c0.5-0.2,0.9-0.4,1.4-0.6c-2.6-4.5-31.1,16.9-34.3,19.2c-19.8,14-34.3,34.9-42.1,57.9C162.9,119.8,164.4,120.2,164.7,119.3
				L164.7,119.3z"/>
		</g>
	</g>
	<g>
		<g>
			<path class="st2" d="M238.2,39.2c-10.8-11.1-30.8-8.9-44.6-7.1c-0.9,0.1-1,1.6,0,1.5c8.2-1,16.4-1.7,24.6-0.8
				c7.3,0.9,13.7,1.9,19,7.4C237.8,40.9,238.8,39.9,238.2,39.2L238.2,39.2z"/>
		</g>
	</g>
	<g>
		<g>
			<path class="st2" d="M235.9,41.7c-17-6.3-35.1-6-52.2,0c-0.9,0.3-0.5,1.8,0.4,1.4c16.8-5.9,34.5-6.2,51.4,0
				C236.4,43.5,236.8,42,235.9,41.7L235.9,41.7z"/>
		</g>
	</g>
	<g>
		<g>
			<path class="st2" d="M229.1,45.5c-20.8-3.7-38.6,8.1-56.2,17.1c-0.9,0.4-0.1,1.7,0.8,1.3c17.3-8.7,34.7-20.5,55.1-16.9
				C229.6,47.1,230,45.7,229.1,45.5L229.1,45.5z"/>
		</g>
	</g>
	<g>
		<g>
			<path class="st2" d="M219.6,51.5c-20.2,0.1-37.2,10.6-51.5,24.2c-0.7,0.7,0.4,1.7,1.1,1.1c14-13.4,30.5-23.7,50.4-23.8
				C220.6,53,220.6,51.5,219.6,51.5L219.6,51.5z"/>
		</g>
	</g>
	<g>
		<g>
			<path class="st2" d="M208.1,58.5c-17.6,6.9-30.8,19-42.5,33.7c-0.6,0.7,0.5,1.8,1.1,1.1c11.4-14.4,24.4-26.5,41.8-33.3
				C209.4,59.6,209,58.2,208.1,58.5L208.1,58.5z"/>
		</g>
	</g>
	<g>
		<g>
			<path class="st2" d="M234.8,12.8c-5-6.7-11.8-9.6-19.4-12.4c-0.9-0.3-1.3,1.1-0.4,1.4c7.3,2.7,13.7,5.3,18.5,11.7
				C234.1,14.3,235.4,13.6,234.8,12.8L234.8,12.8z"/>
		</g>
	</g>
	<g>
		<g>
			<path class="st2" d="M225.2,10.1c-3.1-1.7-5.8-3.9-9.2-5c-4.2-1.4-8.5-2.1-12.9-2.5c-1-0.1-1,1.4,0,1.5c4.2,0.4,8.4,1,12.5,2.4
				c3.3,1.1,5.8,3.3,8.9,4.9C225.3,11.9,226.1,10.6,225.2,10.1L225.2,10.1z"/>
		</g>
	</g>
	<g>
		<g>
			<path class="st2" d="M238.9,14.5c-20.3,0.7-41.1,8.5-56.4,21.9c-17.3,15.1-22,37-22.3,59.1c-0.2,13.1,0.8,26.2,0.6,39.3
				c-0.2,14.3-2.8,28.2-6.2,42.1c-3.5,14-6.9,28.1-11.4,41.8c-2.3,7.1-4.9,14-8,20.8c-2.8,6.1-5.9,12-7.9,18.3
				c-4.4,13.7-5.7,29.1-6,43.4c-0.2,14.3,1.7,28.5,7.3,41.7c0.4,0.9,1.7,0.1,1.3-0.8c-5.4-12.7-7.3-26.4-7.1-40.1
				c0.1-13.1,1.4-26.7,4.6-39.4c3.3-12.7,10.3-24.2,14.8-36.5c4.5-12.3,7.8-25,11.1-37.7c3.2-12.5,6.5-25.1,8.1-37.9
				c1.5-12,1.1-24.1,0.7-36.2c-0.7-23.3-1.6-49.7,13.9-68.9c14.8-18.3,39.8-28.6,63-29.4C239.9,16,239.9,14.5,238.9,14.5L238.9,14.5
				z"/>
		</g>
	</g>
	<g>
		<g>
			<path class="st2" d="M227.9,10.5C204,13.7,182.7,28.2,167.3,46c-9.4,10.8-16.1,23.2-17.9,37.5c-2.2,16.6-0.3,33.7,0,50.4
				c0.3,17.8-0.3,35.7-5,53c-4.4,16.5-11.6,32.1-18.9,47.4c-13.4,28.1-28.4,58-26.2,90c1.1,15.3,6.1,30,15.7,42.1
				c4.2,5.2,9,9.9,13.2,15.1c5.3,6.7,8.4,14.1,9,22.6c0.1,1,1.6,1,1.5,0c-0.9-11.2-5.8-19.7-13.1-27.9
				c-9.5-10.6-17.7-20.7-21.7-34.7c-9.4-32.4,3.5-65.2,17.1-94.2c13.2-28.1,26.9-55.4,29.4-86.8c1.3-16.5,0.4-33-0.1-49.5
				c-0.5-16.7-0.7-33.6,7.4-48.8c7.2-13.3,19.2-26.6,31.9-34.9c11.2-7.3,24.9-13.6,38.3-15.4C228.8,11.9,228.8,10.4,227.9,10.5
				L227.9,10.5z"/>
		</g>
	</g>
	<g>
		<g>
			<path class="st2" d="M126.4,232.8c-8.2,25.9-16.5,52.4-19.4,79.6c-2.4,23,4.5,45.1,25.1,57.5c0.8,0.5,1.6-0.8,0.8-1.3
				c-9.8-5.9-17.5-14.7-21.6-25.4c-4.6-12.1-3.8-25.4-1.9-38c3.7-24.5,10.9-48.4,18.4-72C128.1,232.3,126.7,231.9,126.4,232.8
				L126.4,232.8z"/>
		</g>
	</g>
	<g>
		<g>
			<path class="st2" d="M137.9,206.6c-4,14.1-7.6,28.4-11.3,42.6c-3.7,14.2-8,28.2-11.5,42.4c-4.8,19.5-11.9,53.6,14.8,60.9
				c0.9,0.3,1.3-1.2,0.4-1.4c-13.7-3.8-19.1-18.1-18.6-31c0.5-13.1,4.2-26.3,7.6-38.9c6.7-24.7,13.1-49.5,20-74.1
				C139.6,206,138.2,205.6,137.9,206.6L137.9,206.6z"/>
		</g>
	</g>
	<g>
		<g>
			<path class="st2" d="M190.9,15c-44,23.3-62.2,74.6-59,122.1c0.9,14,4.3,27.8,4.6,41.8c0.3,14.1-3.8,27.4-9.9,39.9
				c-10.8,22.1-25.3,41.8-34.3,64.9c-10.8,27.8-15.5,57.7-14.2,87.5c0,1,1.5,1,1.5,0c-1.2-26.4,2.4-52.8,10.8-77.9
				c4.2-12.5,9.6-24.6,16-36.2c6-10.7,12.6-20.9,18.4-31.7c5.1-9.6,9.6-19.8,11.7-30.5c2.5-12.5,1-25-0.8-37.5
				c-3.9-27.2-4.1-54.5,5.3-80.7c9.1-25.4,26.6-47.8,50.6-60.5C192.5,15.8,191.8,14.5,190.9,15L190.9,15z"/>
		</g>
	</g>
	<g>
		<g>
			<path class="st2" d="M88.3,295.6c-6.2,22.1-3.7,45.1,4.5,66.4c4.1,10.5,9.3,20.6,15.4,30c6.6,10.4,14.5,20.6,15.9,33.2
				c0.1,1,1.6,1,1.5,0c-1.1-10.1-6.1-18.7-11.5-27.1c-6.4-9.8-12.5-19.6-17.2-30.3c-10-22.7-13.9-47.8-7.1-71.9
				C90,295,88.5,294.6,88.3,295.6L88.3,295.6z"/>
		</g>
	</g>
	<g>
		<g>
			<path class="st2" d="M102.3,262.1C83.8,307.4,87.8,367,122.6,403.8c0.7,0.7,1.7-0.4,1.1-1.1c-34.4-36.4-38.1-95.4-19.9-140.3
				C104.1,261.6,102.7,261.2,102.3,262.1L102.3,262.1z"/>
		</g>
	</g>
	<g>
		<g>
			<path class="st2" d="M171.5,23.6c-38.4,29.6-47.5,80-47.6,125.8c0,14.1,1.1,28.2,1,42.3c0,13.6-3.4,25.6-10.5,37.2
				c-6.3,10.3-14.2,19.5-21,29.5c-6.2,9.3-11.6,19.1-15.8,29.4c-9.9,23.9-13.8,50.6-6.4,75.7c0.3,0.9,1.7,0.5,1.4-0.4
				c-6.7-22.7-4-46.7,4-68.7c4.1-11.4,9.7-22.3,16.3-32.5c6.1-9.5,13.4-18.1,19.7-27.4c6-8.9,11.1-18.6,12.9-29.4
				c2-12.3,0.6-25,0.2-37.4c-0.8-26.3-0.4-53,6.4-78.6c6.6-24.8,19.5-48.4,40.2-64.2C173,24.3,172.3,23,171.5,23.6L171.5,23.6z"/>
		</g>
	</g>
	<g>
		<g>
			<path class="st2" d="M126.9,67.9c-13,27-16.9,57.3-17.3,87c-0.4,30.1,7.3,64.3-7.8,92c-0.5,0.8,0.8,1.6,1.3,0.8
				c14.2-26.2,8.1-57.4,8-85.9c-0.2-31.7,3.2-64.2,17.1-93.1C128.7,67.8,127.4,67,126.9,67.9L126.9,67.9z"/>
		</g>
	</g>
	<g>
		<g>
			<path class="st2" d="M111.8,99.6c-9.2,26.6-8.3,55.5-8.1,83.3c0.2,28.8,0.1,57.7-15.4,83c-0.5,0.8,0.8,1.6,1.3,0.8
				c14.7-24.2,15.7-51.4,15.6-78.9c-0.1-29.2-1.7-59.7,8-87.7C113.6,99,112.1,98.7,111.8,99.6L111.8,99.6z"/>
		</g>
	</g>
	<g>
		<g>
			<path class="st2" d="M104.9,112.4c-26.3,54.6-1.5,117.5-26.1,172.5c-0.4,0.9,0.9,1.6,1.3,0.8c24.6-55-0.2-118,26.1-172.5
				C106.6,112.3,105.3,111.5,104.9,112.4L104.9,112.4z"/>
		</g>
	</g>
	<g>
		<g>
			<path class="st2" d="M93.9,129.4c-15,21.4-18.7,48.7-19.9,74.2c-1.5,31,1.9,62.6-5.8,93c-4,16.1-11,31.4-8.3,48.3
				c0.2,1,1.6,0.5,1.4-0.4C58,324.2,68.8,305,72,285.3c3-18.5,2.8-37.3,2.9-56c0.1-33.2,0.4-70.9,20.2-99.2
				C95.7,129.3,94.4,128.6,93.9,129.4L93.9,129.4z"/>
		</g>
	</g>
	<g>
		<g>
			<path class="st2" d="M77.6,153.2c-14.7,30.8-19.2,64.1-15.3,97.9c1.8,16.2,3.6,31.8,0.8,48c-2.2,12.9-6,26-5.8,39.1
				c0,1,1.5,1,1.5,0c-0.2-13.5,3.8-26.9,6-40.1c2.4-14.5,1.1-28.6-0.6-43.1c-2-17.1-2.8-34-0.4-51.1c2.4-17.3,7.6-34,15.1-49.8
				C79.3,153.1,78,152.3,77.6,153.2L77.6,153.2z"/>
		</g>
	</g>
	<g>
		<g>
			<path class="st2" d="M66.8,169.4c-13.5,19-19.8,42.6-20.3,65.8c-0.2,11.5,1,23.1,4.1,34.2c3.6,13,8.6,25.2,10.6,38.6
				c0.1,1,1.6,0.5,1.4-0.4c-1.9-12.7-6.4-24.3-10-36.5c-3.3-11.1-4.7-22.8-4.6-34.3c0.2-23.4,6.5-47.3,20.1-66.5
				C68.6,169.3,67.3,168.6,66.8,169.4L66.8,169.4z"/>
		</g>
	</g>
	<g>
		<g>
			<path class="st2" d="M50.7,196.6c-3.5,8.5-7.2,17.2-8.3,26.4c-1.1,9.8,0,20.1,1.2,29.8c1.4,11.1,4.9,20.9,8.5,31.3
				c4.2,11.8,8,24.5,6.6,37.1c-0.1,1,1.4,1,1.5,0c2.5-23-11.6-43-14.7-65.1c-1.4-10.1-2.6-20.7-1.8-31c0.7-9.9,4.6-19.1,8.4-28.1
				C52.5,196.1,51,195.7,50.7,196.6L50.7,196.6z"/>
		</g>
	</g>
</g>
</svg>
