<?xml version="1.0" encoding="utf-8"?>
<!-- Generator: Adobe Illustrator 19.1.0, SVG Export Plug-In . SVG Version: 6.00 Build 0)  -->
<svg version="1.1" id="Layer_3" xmlns="http://www.w3.org/2000/svg" xmlns:xlink="http://www.w3.org/1999/xlink" x="0px" y="0px"
	 viewBox="0 0 239.2 493.3" style="enable-background:new 0 0 239.2 493.3;" xml:space="preserve">
<style type="text/css">
	path{stroke-width:1.5;}
	.Drop_x0020_Shadow{fill:none;}
	.Round_x0020_Corners_x0020_2_x0020_pt{fill:#FFFFFF;stroke:#231F20;stroke-miterlimit:10;}
	.Live_x0020_Reflect_x0020_X{fill:none;}
	.Bevel_x0020_Soft{fill:url(#SVGID_1_);}
	.Dusk{fill:#FFFFFF;}
	.Foliage_GS{fill:#FFDD00;}
	.Pompadour_GS{fill-rule:evenodd;clip-rule:evenodd;fill:#44ADE2;}
	.st0{fill:none;stroke:#C6BD26;stroke-miterlimit:10;}
	.st1{fill:none;stroke:#EFA28E;stroke-miterlimit:10;}
	.st2{fill:none;stroke:#C6BD26;stroke-miterlimit:10;}
	.st3{fill:none;stroke:#000000;stroke-miterlimit:10;}
	.st4{fill:none;stroke:#99950B;stroke-miterlimit:10;}
	.st5{fill:none;stroke:#99950B;stroke-miterlimit:10;}
</style>
<linearGradient id="SVGID_1_" gradientUnits="userSpaceOnUse" x1="0.5144" y1="-7.2492" x2="1.2215" y2="-6.5421">
	<stop  offset="0" style="stop-color:#DEDFE3"/>
	<stop  offset="0.1783" style="stop-color:#DADBDF"/>
	<stop  offset="0.3611" style="stop-color:#CECFD3"/>
	<stop  offset="0.546" style="stop-color:#B9BCBF"/>
	<stop  offset="0.7324" style="stop-color:#9CA0A2"/>
	<stop  offset="0.9181" style="stop-color:#787D7E"/>
	<stop  offset="1" style="stop-color:#656B6C"/>
</linearGradient>
<g id="hair-top">
	<path class="st0" d="M51.4,196.8c-9,21.5-9.2,26.2-8.1,45.1c0.4,6.4,1.1,11.8,2.1,18.1c1,6.8,4.5,15.5,6.7,21.7
		c4.3,11.8,9.1,27,7.5,39.6"/>
	<path class="st0" d="M67.4,169.8c-21,29.1-26,74.7-13.3,108.2c3.4,9,6.4,20.2,7.7,29.8"/>
	<path class="st0" d="M78.2,153.6c-12.6,26-18.4,55.3-16.5,84.2c1,15.2,4,30.3,3.9,45.6c-0.2,15.3-8,40.6-7.6,54.8"/>
	<path class="st0" d="M94.5,129.8c-17,23.7-19.9,59.2-20.3,88.4c-0.4,29.2,1.3,59-7.7,86.8c-4.1,12.6-8.4,26.9-6,39.9"/>
	<path class="st0" d="M105.5,112.8c-27.7,56.3,0,115.5-26.1,172.5"/>
	<path class="st0" d="M112.6,99.8c-9.6,26.8-8.1,61-8.1,89.5s-0.5,52.8-15.5,77"/>
	<path class="st0" d="M127.6,68.3c-15.5,31.6-18,69.5-17,104.6c0.8,25.5,4.4,52.2-8.1,74.4"/>
	<path class="st0" d="M171.9,24.2c-22.6,17.1-36.1,44-42.2,71.6c-6.1,27.6-5.4,56.2-4.3,84.4c0.4,9.5,0.8,19.1-1.4,28.3
		c-4.2,18-17.4,32.3-28.1,47.5c-21.6,30.7-34.9,71.3-24,107.2"/>
	<path class="st0" d="M103,262.3c-18.6,44.9-13.6,105.9,20.1,141"/>
	<path class="st0" d="M89,295.8c-9.7,33,1.3,66.9,19.8,95.9c6.8,10.6,15,21.1,16,33.6"/>
	<path class="st0" d="M191.3,15.6c-22.5,11.7-39.4,32.5-49,55.9s-11.8,49.4-8.9,74.6c1.6,13.5,4.7,27,3.6,40.6
		c-2.2,26.8-19.9,49.3-32.7,73c-18.4,34-27.3,73-25.4,111.6"/>
	<path class="st0" d="M138.6,206.8c-5.6,19.8-10.8,41.6-16.5,61.4c-3.8,13.2-7.5,26.5-9.8,40.1c-1.4,8.3-2.3,17,0,25.1
		s9.5,16.5,17.8,18.4"/>
	<path class="st0" d="M127.1,233c-7.1,22.5-13.9,44.9-17.8,68.3c-2.1,12.3-3.5,25-0.4,37c3.3,12.9,12,24.3,23.5,31"/>
	<path class="st0" d="M227.9,11.3c-12.4,1.5-35.6,11.8-44.8,20.1c-13,11.7-25.7,25-30.7,41.8c-3,9.8-3.1,20.1-3,30.3
		c0.4,25.4,2.8,51-2.3,75.9c-4.7,22.9-15.5,44.1-25.5,65.2c-10,21.2-19.6,43.2-21.4,66.5c-1.3,17.1,2.1,35.3,11.6,49.8
		c10.5,16,24.9,22.4,26.2,43.4"/>
	<path class="st0" d="M238.9,15.3c-25.9,0.7-57.5,15.6-69.4,38.5c-14.4,27.9-5.7,61.7-8.6,93c-1.2,12.9-4.4,25.4-7.6,37.9
		c-4.8,18.8-9.6,37.6-17.6,55.2c-2.5,5.4-5.3,10.7-7.3,16.4c-2.5,7-3.8,14.5-4.7,21.9c-2.8,21.7-3.4,44.4,5.4,64.5"/>
	<path class="st0" d="M224.9,10.8c-4-2-4.4-3.5-9.1-5c-4.7-1.5-7.8-2.1-12.7-2.5"/>
	<path class="st0" d="M234.2,13.2c-5.2-7.1-10.7-9-19-12"/>
	<path class="st0" d="M208.3,59.3c-18.3,6.9-30,18.2-42.1,33.5"/>
	<path class="st0" d="M219.6,52.3c-20-0.1-36.6,10.1-50.9,24"/>
	<path class="st0" d="M228.9,46.3c-9.4-1.9-17.6,0.1-26.8,2.9c-9.2,2.8-20.2,9.8-28.8,14.1"/>
	<path class="st0" d="M235.7,42.4c-16.8-6.4-34.9-6.2-51.8,0"/>
	<path class="st0" d="M237.6,39.7c-5.6-6.1-11.3-6.6-19.5-7.7c-8.3-1.1-16.3-0.3-24.6,0.8"/>
	<path class="st0" d="M163.9,119.1c6.4-19.6,19.8-39.8,35.6-52.9c3.1-2.5,38.1-27.4,39.3-23.9c-5.2-14.5-21.4-19.9-35.8-14.5
		C188.7,33.3,179,47,173.4,61.3c-15.6,39.6-5.3,84.8-15.3,126.1c-5.4,22.3-16.5,42.7-23,64.7c-11.5,38.9-8.1,80.5-1.8,120.6
		c4.9,31,11.4,63.1,3,93.3c2.2-31.7-2.7-57.3-13.9-87c1.8,25.8,3.1,45.1,3.5,70.9c-1.1-19.7-12.3-37.4-24.9-52.5s-27.2-29-37-46.1
		c-14.8-25.7-17.7-56.3-20.2-85.9c-3.4,32.8,1.6,66.4,14.5,96.7c-18.1-34-30.3-72.6-25-110.7c8.5-61.4,58.8-107.6,85.7-163.4
		c8.5-17.7,15.2-37.2,29.9-50.2c8.3-7.4,18.6-12.1,28.9-16.4c11.5-4.8,21.2-10.5,33.7-11.1c12-0.5,16.5-0.7,27.6,5.5
		c-2.3-13.4-12-13.5-20.1-14.7c-13.5-2-43.5,11.8-50.1,23.7"/>
</g>
<g id="hair-bottom">
	<path class="st1" d="M186.4,332.3c3.2,12.7,0.6,26.5-4.3,38.7"/>
	<path class="st1" d="M136.3,249.9c11.1,45.6,44.6,86.8,87.5,106.1c6.7,3,8.7,3.9,15.1,3.9"/>
	<path class="st0" d="M8.3,391.9c-0.3,23.7,10.9,47.3,26.2,65.4"/>
	<path class="st0" d="M15.3,372.4c-3.4,14.8-0.5,34.3,4.3,48.8c4.8,14.5,13.2,26.3,20.6,39.6"/>
	<path class="st0" d="M17.8,360.7c-2.4,19.2,1.3,34.7,8.2,52.8c7.3,19.1,20.2,30.7,20.8,51.1"/>
	<path class="st0" d="M32.7,281.6c-10.1,18.2-8.9,37.5-8.3,58.2c0.5,19.1,1.2,38.4,5.3,57.1c5.6,24.9,18.4,43.5,19.1,68.9"/>
	<path class="st0" d="M34,296.6c0,20.5-6.1,37.8-5.3,58.2c1.8,47.1,35.5,84.6,44.6,130.8"/>
	<path class="st0" d="M37.3,311.3c-7.2,26.8-4.9,54.8,5.2,80.7c7.6,19.7,19.8,37.2,29.9,55.7c10.1,18.5,12,24.6,15.7,45.6"/>
	<path class="st0" d="M41.6,324.7c-4.1,13.6-4.1,28.2-2,42.2c2.1,14.1,6.3,27.7,10.5,41.3"/>
	<path class="st0" d="M51,347.7c-6,22.4-2.9,48.6,4.3,70.6"/>
	<path class="st0" d="M53.4,327.6c0.1,6.1,0.1,12.1-1.4,18"/>
	<path class="st0" d="M57.1,336.9c5.1,18.9,1.4,38.1,1.2,57.7c-0.1,20.7-1.4,25,8.5,43"/>
	<path class="st0" d="M74.1,366.9c-3.3,13.3-7.5,30.6-7,44.3c1.3,35.7,25.1,68,32.7,79.4"/>
	<path class="st0" d="M82.8,376.6c-20.4,48.7,5.1,78.4,15.4,102.7"/>
	<path class="st0" d="M85.7,381.1c-2.1,9.4-4,18.8-5.1,28.4c-3.5,30.4,6.9,44.7,16.3,60.1"/>
	<path class="st0" d="M114.2,415.9c-2.5,17.3,3.6,32.6,12.5,47.7c8.9,15.1,10.9,17,23,29.7"/>
	<path class="st0" d="M110.9,411.3c-0.7,15.9-0.8,32.1,4,47.2c2.4,7.6,6.1,14.8,9.7,21.9c3.5,6.9,2.5,6,6,12.9"/>
	<path class="st0" d="M104.9,414.3c-5.9,27.6-3.7,54,9.4,79"/>
	<path class="st0" d="M107.5,405.8c-11,30.6-14.3,55.9-6.6,87.5"/>
	<path class="st0" d="M129.9,277.3c6.2,26.4,6.9,55.5,1.3,82"/>
	<path class="st0" d="M131.2,268.4c18.7,47,6.4,98.1,17.7,147.4c7.6,33.2,20.3,54.8,45.9,77.4"/>
	<path class="st0" d="M143,270.9c4.8,30.5,1,62.4,3.6,93.1c2.1,24.7,9,49,20.2,71.1c8,15.8,19.4,31.4,35.1,39.7"/>
	<path class="st0" d="M157.9,299.3c4.6,21.8,22.2,41.4,23.5,63.7"/>
	<path class="st0" d="M147.3,281.3c3,19,2.5,39.2,4,58.3c2.3,29.2,11.7,57.9,27.1,82.9"/>
	<path class="st0" d="M150.7,287.6c2.3,15.3,4.7,33.4,6,47.4c1.8,20.2,8,41.7,16.8,60"/>
	<path class="st0" d="M32,258.7c-10.8,19.7-16.1,42.3-15.1,64.7c0.5,11.2,2.5,22.3,1.5,33.4C16.9,372,9.8,386,4.9,400.5
		C0,415-2.7,431.5,4.4,445c5.2,10,14.9,16.8,24.4,23c-17.1-10-30.2-30.4-25.1-49.5c-1.5,13,10.8,23.8,20.9,32.1s22.3,13.7,33.1,21.1
		c10.8,7.4,13.4,8.9,20.1,21.6"/>
	<path class="st0" d="M176.4,322.6c3.3,8.3,5.7,25.9,5.2,34.9c-1.6,29.6,5.2,59.7,19.6,85.7c3.3,6,7.1,11.9,11.6,17.1
		c-23.2-23.9-37.4-56.5-38.9-89.7c-0.6,13.8-1.3,27.7,1.7,41.2c4.5,20.5,17.1,38.3,24.7,57.9c3.2,8.2,5.7,15.1,3.6,23.6"/>
</g>
<g id="eyebrow">
	<path class="st0" d="M219.5,150.6c-0.5-0.7-6.7-10.5-7.4-10.9c-0.6-0.4-1.4-0.5-2.1-0.6c-5.7-0.9-11.4-1.8-17.1-2.7
		c-5.1-0.8-10.2-1.6-15.3-0.9c-11.4,1.5-23.3,13-31.4,21.1c10.4-5.7,25.8-9.1,37.6-8.2s35.3,2.2,35.3,2.2"/>
	<path class="st2" d="M169.8,137.8c-3.4,2.1-8.4,6.7-10.6,10"/>
	<path class="st2" d="M177.5,135.8c-3.5,1.6-7.8,5.8-10.2,8.8"/>
	<path class="st2" d="M184,135.3c-2.6,0.6-6.1,3.4-7.9,5.3"/>
	<path class="st2" d="M189.1,135.9c-2,0.5-5.2,1.7-6.7,3"/>
	<path class="st2" d="M175.5,148.5c-3.5-0.6-13.2-0.8-17.5,0.5"/>
	<path class="st2" d="M188.4,148.6c-6.8-2.9-16.1-3.7-23.4-3.1"/>
	<path class="st2" d="M194.8,148.9c-7-3.9-15.3-5.4-23.3-6.2"/>
	<path class="st2" d="M202.3,149.5c-7.4-4.7-16-7.3-24.5-9.3"/>
	<path class="st2" d="M207.5,149.6c-6.9-5.6-16.1-8.8-24.7-10.7"/>
	<path class="st2" d="M210.8,149.9c-6.2-6.4-13.4-9.8-22.1-12"/>
	<path class="st2" d="M195.1,137.6c6.5,3.3,14.3,8,19.8,12.8"/>
	<path class="st2" d="M218.5,150.6c-3.9-5.1-8.9-9-14.4-12.3"/>
	<path class="st0" d="M198.5,137.1c-15.4,0-37.2,9.1-50.2,17.4"/>
</g>
<g id="eye">
	<path class="st3" d="M188.2,178.4c-1.3-0.4-3.7,0-5,0.4"/>
	<path class="st3" d="M187.6,180.8c-2.8,0.1-4.1,0.8-6.2,2.7"/>
	<path class="st3" d="M188.4,182.7c-2.5,1-4.1,2.2-5.7,4.4"/>
	<path class="st3" d="M191.2,184.5c-1.8,1.5-3.8,3.4-5.3,5.2"/>
	<path class="st3" d="M193.4,185.7c-1.3,2-3.2,3.5-5.1,5"/>
	<path class="st3" d="M196.8,183.3c0.1,4.5-4.6,8.3-9,7.5c-4.4-0.8-7.3-5.9-6.1-10.2s5.7-6.1,10-5.1c-2.6,1.4-3.9,3.6-3,6.4
		c0.9,2.8,5,4.2,7.2,2.2"/>
	<path class="st4" d="M180.3,191.5c-4.6-3.4-5.4-9.4-2.4-14.2"/>
	<path class="st4" d="M195.5,174.1c2.4,0.8,4.6,5,5,7.4c0.5,3,0.5,2.5-0.5,6c-0.9,3.2-2.5,4.2-5.8,5.2"/>
	<path class="st5" d="M198,192.5c-15.1,1.9-31.2-4-40.2-10c0.7,1.1,2.3,4.4,4.8,5.8c3.5,2,6.5,3.5,10.2,4.3c4.6,1,9.2,1.8,13.8,1.9
		c3.5,0.1,9.1-1,12.5-1.8c3.3-0.8,5.2-0.3,8.7-0.5c4-0.2,5.7-0.3,9.4,1.3c0,0-7.2-11.3-12.4-15c-9.4-6.7-21.9-7.7-33.2-5.1
		c-6.2,1.4-20.5,10.4-29,2.9c8.2,8.9,21.2,4.5,28.3,3c7.1-1.5,16.5-5.4,23.7-5.4"/>
	<path class="st4" d="M171.2,173.4c-1.5,0.7-3.6,2.2-5.6,3.6c-1.9,1.3-7.1,4-8.4,4.5"/>
	<path class="st4" d="M176.1,172.7c-3.2,1.7-9.9,6.6-13.2,8.4"/>
	<path class="st4" d="M180.7,172.3c-3.1,1.7-8,5-10.7,7.2"/>
	<path class="st4" d="M186.7,172.3c-3,0.6-6.7,3.4-9.2,5.3"/>
	<path class="st1" d="M217,193.3c-2-6.5-4.4-12.1-9.2-16.9c-4.8-4.8-11.2-8.1-18-8.5c-6.2-0.3-12.9,2.6-19,3.8
		c-6.4,1.2-13.8,3.1-21,0.8"/>
</g>
<g id="nose-mouth">
	<path class="st1" d="M239.2,295.7c-6.3-2.6-8.9-1.4-14.5-1.9c-8.1-0.7-18.7-2.2-24.8-7.4"/>
	<path class="st1" d="M238.9,288.6c-0.9-1.9-0.9-2.9-2.9-3.6c-2.1-0.7-4.3,0.7-6.4,1.4c-5.7,1.7-11.8,2.7-18.7,1.7
		c-1.9-0.3-7.3-0.3-9.7-0.7c3.4,6.3,12.2,12.6,18.3,16.3c6.2,3.7,12.7,5.7,19.7,6"/>
	<path class="st1" d="M212.6,234.5c-2,3.6-2.3,8-1,11.9s4,7.2,7.3,9.6"/>
	<path class="st1" d="M234.9,253.3c-1.4-0.9-17.2-7.6-13.8-1.5c1.8,3.1,5.7-2.2,9.3-0.8"/>
</g>
</svg>
