<?xml version="1.0" encoding="utf-8"?>
<!-- Generator: Adobe Illustrator 19.1.0, SVG Export Plug-In . SVG Version: 6.00 Build 0)  -->
<svg version="1.1" id="Layer_3" xmlns="http://www.w3.org/2000/svg" xmlns:xlink="http://www.w3.org/1999/xlink" x="0px" y="0px"
	 viewBox="0 0 377 414.5" style="enable-background:new 0 0 377 414.5;" xml:space="preserve">
<style type="text/css">
	path{stroke-width:3.5;}
	.Drop_x0020_Shadow{fill:none;}
	.Round_x0020_Corners_x0020_2_x0020_pt{fill:#FFFFFF;stroke:#231F20;stroke-miterlimit:10;}
	.Live_x0020_Reflect_x0020_X{fill:none;}
	.Bevel_x0020_Soft{fill:url(#SVGID_1_);}
	.Dusk{fill:#FFFFFF;}
	.Foliage_GS{fill:#FFDD00;}
	.Pompadour_GS{fill-rule:evenodd;clip-rule:evenodd;fill:#44ADE2;}
	.st0{fill:none;stroke:#162891;stroke-miterlimit:10;}
	.st1{fill:none;stroke:#3880BA;stroke-miterlimit:10;}
	.st2{fill:none;stroke:#EFA28E;stroke-miterlimit:10;}
	.st3{fill:none;stroke:#231F20;stroke-miterlimit:10;}
</style>
<linearGradient id="SVGID_1_" gradientUnits="userSpaceOnUse" x1="-121.508" y1="-23.2226" x2="-120.8009" y2="-22.5155">
	<stop  offset="0" style="stop-color:#DEDFE3"/>
	<stop  offset="0.1783" style="stop-color:#DADBDF"/>
	<stop  offset="0.3611" style="stop-color:#CECFD3"/>
	<stop  offset="0.546" style="stop-color:#B9BCBF"/>
	<stop  offset="0.7324" style="stop-color:#9CA0A2"/>
	<stop  offset="0.9181" style="stop-color:#787D7E"/>
	<stop  offset="1" style="stop-color:#656B6C"/>
</linearGradient>
<path class="st0" d="M0.5,0.3c7.7,42.7,22.2,97,35,135.9"/>
<path class="st0" d="M127.5,0.3c0.1,41.8-3.6,90.8-6.1,130.1"/>
<path class="st1" d="M28.5,134.4c2.2,2,7.5,3.2,10.5,3.5c29.7,3.3,60.5,1.2,88.7-8.4"/>
<path class="st1" d="M29.2,119c-2.6,2.7-9.2,7.3-11.7,10.1c5.1,12,7.6,25.1,7.5,38.2c36.1,11.3,71.9,11.9,108.4,2.1
	c1.4-3.5,2.8-42.6,0-46.1c-2.8-2.8-4.2-3.5-9.8-5.6"/>
<path class="st2" d="M38.4,171.9c-1.8,4.9-4,11-5.8,16c-0.4,1.2-0.9,2.4-0.6,3.7c0.2,1,1,1.9,1.7,2.7c7,8,9.6,17.1,15.1,26.9"/>
<path class="st2" d="M120.6,173.5c-0.7,9.1-3.3,25.8-4,34.9"/>
<path class="st3" d="M49.5,222.4c11-8.4,20.7-14.6,34.4-17c13.7-2.4,28.5-0.2,39.8,7.8"/>
<path class="st3" d="M38.8,203.6c-3.5,3.1-6.9,7.1-6.6,11.8c12,2.5,23.1,12.7,28.3,23.8s8.9,24.7,8.6,36.9c-0.5,21,0,30.7-16.8,60.8
	"/>
<path class="st3" d="M118.5,197.3c1.7,3.4,7.1,3.5,8.6,7c0.8,2,0,4.2-0.7,6.2c-6.9,18.6-6.6,39.7,0.8,58.1
	c7.4,18.4,12.5,25.1,29.3,37"/>
<path class="st3" d="M126.7,205.7c2.4,36.7,13.7,71,32.9,102.4"/>
<path class="st3" d="M40.8,384.9c-1.2-24.7,10-50.8,28.8-66.9c18.8-16.1,45.2-22.8,69.5-17.8c7.7,1.6,15.3,4.4,21.6,9.1
	c10.2,7.5,16.5,19.4,19.8,31.6c3.2,12.3,3.6,25,4,37.7"/>
<path class="st3" d="M38.7,385c11.5,7.3,25.4,9.4,39,10.1c37,2,74.4-5.7,107.6-22.1"/>
<path class="st3" d="M37.6,383.9c0.8,4.9,1.5,9.8,2.3,14.7c0.3,1.7,0.6,3.5,1.6,4.9c1.3,1.7,3.6,2.4,5.7,3
	c42.8,11.6,89.1,10,131.1-4.5c1.4-0.5,3-1.1,3.8-2.3c0.7-1,0.8-2.3,0.9-3.5c0.7-7.2,1.3-14.5,2-21.7"/>
<path class="st3" d="M31.2,216.3c1.1,8.8,2.3,17.6,3.4,26.5c1.6,12.7,3.3,25.7,1.2,38.4c-1.3,8.2-4.2,16.2-4.9,24.5
	c-0.5,5.9,0.1,11.7,0.8,17.6c2,18.8,4.7,41.2,6.7,60"/>
<path class="st3" d="M164.1,120.4c-10.6,31-22.2,53-39.1,81.1"/>
<path class="st3" d="M165.5,119.7c24.1,10.4,38.1,22,50.9,44.9c13.7,24.7,15,54.8,29,79.3c10,17.5,30,26.1,42.4,42.1
	c12.4,15.9,14,23.1,9.8,45.4"/>
<path class="st3" d="M219.3,172.1c1.6-19.7,16.3-26.8,34.9-33.5c0,27.4,0.5,47,5.9,73.8c5.4,26.8,18.2,45.9,35.3,67.3"/>
<path class="st3" d="M294.7,279.7c0.3,0.1,4.2,14.7,5.6,27.3c1.3,11.4,0.8,14.3-1.9,25.4"/>
<path class="st3" d="M294.7,279.7c17.5-14,32.9-10.6,48.2-8.4c8.2,1.2,14.7,6.5,20.3,12.6c3.8,4.1,5.8,9.5,7.3,14.9
	c4.5,15.7,6.7,33,5.7,49.4"/>
<path class="st3" d="M128.4,209.8c2.2,5,10.6,21.5,14,25.9c7,9.1,13.5,16,22.7,22.9c23.6,18,47.7,35.3,72.2,52.1
	c14.1,9.7,31.7,16.1,48.3,20c30,7,60.8-1.2,89.7-3.5"/>
<path class="st3" d="M136.1,257.3c24.5,31.5,59.8,52.6,94.4,72.4c11.1,6.4,22.4,12.7,34.4,17.1c32.1,11.8,77.2,4.9,111.3,1.3"/>
<path class="st0" d="M176,0.3c1,22.8,2.2,46.3,3.5,69.1"/>
<path class="st0" d="M294.3,0.3c-2.1,3.5-28.9,58.6-39.4,88"/>
<path class="st1" d="M173.7,68.3c27,12.6,56.4,20,86.1,21.6"/>
<path class="st1" d="M177.3,60.2c-3,1-6,2-9,3c2.3,13.3,1.4,27.1-2.6,39.9c26.8,17.7,60.6,19.8,92.7,21.3
	c0.7-14.4,4.2-28.7,10.3-41.7c-2.5-1-6.2-3.2-8.7-4.2"/>
<path class="st2" d="M173.9,109.2c0.2,4.3-1.3,8.7-4.2,11.9"/>
<path class="st2" d="M248.6,123.9c-1.4,6.3-2.1,10.5-2.1,17.5"/>
<path class="st3" d="M46,232.8c30.3,2.4,62.1,7.5,85.8,26.6c-28.4,1-56.6,9.3-81,23.9c26.8-2.8,54.4-5.5,80.1,2.3
	c4.3,1.3,8.5,2.9,12.6,4.8c0.3,0.1,0.6,0.3,0.9,0.4"/>
<path class="st3" d="M126.4,222.9c-26.1,4.2-51,16.1-70.6,33.9c28.7-2.2,57.9,3.4,83.7,16.1C111,274,83,284.3,60.6,301.8"/>
<path class="st3" d="M214.4,197.7c14.3-0.5,28.7,2.2,41.9,7.9c-12.7,7.1-22.4,19.5-26.2,33.6c11.4-4.8,23.7-7.4,36.1-7.7
	c-7.8,10.9-12.2,24.3-12.5,37.7c7.2-5.5,15.5-9.6,24.3-11.8c-3.4,8.8-4.1,18.7-2,27.9"/>
<path class="st3" d="M65,347c-4.2,3.9-7.7,8.4-10.3,13.4c3.1-2.7,6.9-4.7,10.9-5.8c0.8,8.6-11.3,13.6-12,22.3"/>
<path class="st3" d="M333.8,291.6c5.9,4.7,10.5,11.1,13.2,18.2"/>
<path class="st3" d="M347.2,297.8c2.8,4.2,5.2,8.7,7.2,13.3c0.7-1.6,1.4-3.3,2.1-4.9c0.2-0.6,0.5-1.2,1.1-1.4c1-0.4,1.8,0.6,2.4,1.5
	c1.6,2.8,2.7,5.8,3.2,9"/>
</svg>
